<svg xmlns="http://www.w3.org/2000/svg" xmlns:xlink="http://www.w3.org/1999/xlink" width="344" zoomAndPan="magnify" viewBox="0 0 258 76.499998" height="102" preserveAspectRatio="xMidYMid meet" version="1.2">
       <style>
    #bbb-tabs g:not(.bbb-tabs-icon) { fill: #1B1B18 !important} @media (prefers-color-scheme:dark) { #bbb-tabs g:not(.bbb-tabs-icon) { fill: #fff !important } }
  </style>
  <defs>
    <clipPath id="e4309937bd">
      <path d="M 0.835938 0 L 257.160156 0 L 257.160156 76.003906 L 0.835938 76.003906 Z M 0.835938 0 "/>
    </clipPath>
    <clipPath id="a23fa4686b">
      <rect x="0" width="90" y="0" height="20"/>
    </clipPath>
    <clipPath id="e9b3475db5">
      <path d="M 0.835938 0 L 76.496094 0 L 76.496094 75.363281 L 0.835938 75.363281 Z M 0.835938 0 "/>
    </clipPath>
    <clipPath id="cdfc4c2cc9">
      <path d="M 16.484375 0 L 60.589844 0 C 69.234375 0 76.238281 7.003906 76.238281 15.648438 L 76.238281 59.714844 C 76.238281 68.359375 69.234375 75.363281 60.589844 75.363281 L 16.484375 75.363281 C 7.84375 75.363281 0.835938 68.359375 0.835938 59.714844 L 0.835938 15.648438 C 0.835938 7.003906 7.84375 0 16.484375 0 Z M 16.484375 0 "/>
    </clipPath>
    <clipPath id="27cd2de40c">
      <path d="M 0.835938 0 L 76.421875 0 L 76.421875 75.363281 L 0.835938 75.363281 Z M 0.835938 0 "/>
    </clipPath>
    <clipPath id="abbce51e2f">
      <path d="M 16.484375 0 L 60.589844 0 C 69.234375 0 76.238281 7.003906 76.238281 15.648438 L 76.238281 59.714844 C 76.238281 68.359375 69.234375 75.363281 60.589844 75.363281 L 16.484375 75.363281 C 7.84375 75.363281 0.835938 68.359375 0.835938 59.714844 L 0.835938 15.648438 C 0.835938 7.003906 7.84375 0 16.484375 0 Z M 16.484375 0 "/>
    </clipPath>
    <clipPath id="73720cba4d">
      <rect x="0" width="77" y="0" height="76"/>
    </clipPath>
  </defs>
  <g id="bbb-tabs">
    <g transform="matrix(1,0,0,1,90,12)">
      <g clip-path="url(#a23fa4686b)">
        <g style="fill:#0a0a0a;fill-opacity:1;">
          <g transform="translate(0.0296907, 15.761368)">
            <path style="stroke:none" d="M 5.484375 -1.234375 C 5.921875 -1.234375 6.296875 -1.28125 6.609375 -1.375 C 6.929688 -1.476562 7.195312 -1.617188 7.40625 -1.796875 C 7.613281 -1.984375 7.765625 -2.203125 7.859375 -2.453125 C 7.953125 -2.710938 8 -2.992188 8 -3.296875 C 8 -3.890625 7.785156 -4.359375 7.359375 -4.703125 C 6.941406 -5.046875 6.316406 -5.21875 5.484375 -5.21875 L 3 -5.21875 L 3 -1.234375 Z M 3 -10.21875 L 3 -6.3125 L 5.046875 -6.3125 C 5.484375 -6.3125 5.863281 -6.359375 6.1875 -6.453125 C 6.507812 -6.554688 6.773438 -6.691406 6.984375 -6.859375 C 7.191406 -7.023438 7.34375 -7.226562 7.4375 -7.46875 C 7.539062 -7.71875 7.59375 -7.984375 7.59375 -8.265625 C 7.59375 -8.941406 7.390625 -9.4375 6.984375 -9.75 C 6.585938 -10.0625 5.960938 -10.21875 5.109375 -10.21875 Z M 5.109375 -11.4375 C 5.804688 -11.4375 6.410156 -11.367188 6.921875 -11.234375 C 7.429688 -11.097656 7.847656 -10.898438 8.171875 -10.640625 C 8.503906 -10.390625 8.75 -10.078125 8.90625 -9.703125 C 9.0625 -9.335938 9.140625 -8.921875 9.140625 -8.453125 C 9.140625 -8.171875 9.09375 -7.898438 9 -7.640625 C 8.914062 -7.390625 8.785156 -7.148438 8.609375 -6.921875 C 8.429688 -6.703125 8.207031 -6.5 7.9375 -6.3125 C 7.664062 -6.132812 7.351562 -5.992188 7 -5.890625 C 7.832031 -5.722656 8.460938 -5.421875 8.890625 -4.984375 C 9.316406 -4.546875 9.53125 -3.96875 9.53125 -3.25 C 9.53125 -2.769531 9.4375 -2.328125 9.25 -1.921875 C 9.070312 -1.523438 8.8125 -1.179688 8.46875 -0.890625 C 8.125 -0.609375 7.703125 -0.390625 7.203125 -0.234375 C 6.703125 -0.078125 6.132812 0 5.5 0 L 1.46875 0 L 1.46875 -11.4375 Z M 5.109375 -11.4375 "/>
          </g>
        </g>
        <g style="fill:#0a0a0a;fill-opacity:1;">
          <g transform="translate(10.19293, 15.761368)">
            <path style="stroke:none" d="M 2.59375 -11.765625 L 2.59375 0 L 1.171875 0 L 1.171875 -11.765625 Z M 2.59375 -11.765625 "/>
          </g>
        </g>
        <g style="fill:#0a0a0a;fill-opacity:1;">
          <g transform="translate(13.961245, 15.761368)">
            <path style="stroke:none" d="M 5.515625 -3.640625 C 4.859375 -3.617188 4.296875 -3.566406 3.828125 -3.484375 C 3.367188 -3.398438 2.992188 -3.289062 2.703125 -3.15625 C 2.421875 -3.03125 2.210938 -2.875 2.078125 -2.6875 C 1.953125 -2.507812 1.890625 -2.304688 1.890625 -2.078125 C 1.890625 -1.867188 1.921875 -1.6875 1.984375 -1.53125 C 2.054688 -1.375 2.148438 -1.242188 2.265625 -1.140625 C 2.390625 -1.046875 2.53125 -0.976562 2.6875 -0.9375 C 2.851562 -0.894531 3.03125 -0.875 3.21875 -0.875 C 3.46875 -0.875 3.695312 -0.894531 3.90625 -0.9375 C 4.113281 -0.988281 4.304688 -1.0625 4.484375 -1.15625 C 4.671875 -1.257812 4.847656 -1.375 5.015625 -1.5 C 5.179688 -1.632812 5.347656 -1.789062 5.515625 -1.96875 Z M 0.921875 -6.953125 C 1.367188 -7.378906 1.847656 -7.695312 2.359375 -7.90625 C 2.878906 -8.125 3.453125 -8.234375 4.078125 -8.234375 C 4.535156 -8.234375 4.9375 -8.15625 5.28125 -8 C 5.632812 -7.851562 5.929688 -7.644531 6.171875 -7.375 C 6.410156 -7.113281 6.59375 -6.796875 6.71875 -6.421875 C 6.84375 -6.046875 6.90625 -5.628906 6.90625 -5.171875 L 6.90625 0 L 6.265625 0 C 6.128906 0 6.023438 -0.0195312 5.953125 -0.0625 C 5.878906 -0.113281 5.816406 -0.203125 5.765625 -0.328125 L 5.609375 -1.109375 C 5.398438 -0.910156 5.191406 -0.734375 4.984375 -0.578125 C 4.785156 -0.421875 4.570312 -0.289062 4.34375 -0.1875 C 4.125 -0.09375 3.882812 -0.0195312 3.625 0.03125 C 3.375 0.09375 3.097656 0.125 2.796875 0.125 C 2.484375 0.125 2.1875 0.0820312 1.90625 0 C 1.632812 -0.09375 1.394531 -0.222656 1.1875 -0.390625 C 0.976562 -0.566406 0.8125 -0.789062 0.6875 -1.0625 C 0.570312 -1.332031 0.515625 -1.648438 0.515625 -2.015625 C 0.515625 -2.335938 0.601562 -2.644531 0.78125 -2.9375 C 0.957031 -3.238281 1.242188 -3.503906 1.640625 -3.734375 C 2.035156 -3.960938 2.546875 -4.148438 3.171875 -4.296875 C 3.804688 -4.441406 4.585938 -4.523438 5.515625 -4.546875 L 5.515625 -5.171875 C 5.515625 -5.796875 5.375 -6.269531 5.09375 -6.59375 C 4.820312 -6.914062 4.425781 -7.078125 3.90625 -7.078125 C 3.5625 -7.078125 3.269531 -7.03125 3.03125 -6.9375 C 2.789062 -6.851562 2.582031 -6.753906 2.40625 -6.640625 C 2.238281 -6.535156 2.09375 -6.441406 1.96875 -6.359375 C 1.84375 -6.273438 1.71875 -6.234375 1.59375 -6.234375 C 1.5 -6.234375 1.414062 -6.253906 1.34375 -6.296875 C 1.28125 -6.347656 1.222656 -6.410156 1.171875 -6.484375 Z M 0.921875 -6.953125 "/>
          </g>
        </g>
        <g style="fill:#0a0a0a;fill-opacity:1;">
          <g transform="translate(21.737357, 15.761368)">
            <path style="stroke:none" d="M 5.484375 -1.234375 C 5.921875 -1.234375 6.296875 -1.28125 6.609375 -1.375 C 6.929688 -1.476562 7.195312 -1.617188 7.40625 -1.796875 C 7.613281 -1.984375 7.765625 -2.203125 7.859375 -2.453125 C 7.953125 -2.710938 8 -2.992188 8 -3.296875 C 8 -3.890625 7.785156 -4.359375 7.359375 -4.703125 C 6.941406 -5.046875 6.316406 -5.21875 5.484375 -5.21875 L 3 -5.21875 L 3 -1.234375 Z M 3 -10.21875 L 3 -6.3125 L 5.046875 -6.3125 C 5.484375 -6.3125 5.863281 -6.359375 6.1875 -6.453125 C 6.507812 -6.554688 6.773438 -6.691406 6.984375 -6.859375 C 7.191406 -7.023438 7.34375 -7.226562 7.4375 -7.46875 C 7.539062 -7.71875 7.59375 -7.984375 7.59375 -8.265625 C 7.59375 -8.941406 7.390625 -9.4375 6.984375 -9.75 C 6.585938 -10.0625 5.960938 -10.21875 5.109375 -10.21875 Z M 5.109375 -11.4375 C 5.804688 -11.4375 6.410156 -11.367188 6.921875 -11.234375 C 7.429688 -11.097656 7.847656 -10.898438 8.171875 -10.640625 C 8.503906 -10.390625 8.75 -10.078125 8.90625 -9.703125 C 9.0625 -9.335938 9.140625 -8.921875 9.140625 -8.453125 C 9.140625 -8.171875 9.09375 -7.898438 9 -7.640625 C 8.914062 -7.390625 8.785156 -7.148438 8.609375 -6.921875 C 8.429688 -6.703125 8.207031 -6.5 7.9375 -6.3125 C 7.664062 -6.132812 7.351562 -5.992188 7 -5.890625 C 7.832031 -5.722656 8.460938 -5.421875 8.890625 -4.984375 C 9.316406 -4.546875 9.53125 -3.96875 9.53125 -3.25 C 9.53125 -2.769531 9.4375 -2.328125 9.25 -1.921875 C 9.070312 -1.523438 8.8125 -1.179688 8.46875 -0.890625 C 8.125 -0.609375 7.703125 -0.390625 7.203125 -0.234375 C 6.703125 -0.078125 6.132812 0 5.5 0 L 1.46875 0 L 1.46875 -11.4375 Z M 5.109375 -11.4375 "/>
          </g>
        </g>
        <g style="fill:#0a0a0a;fill-opacity:1;">
          <g transform="translate(31.900596, 15.761368)">
            <path style="stroke:none" d="M 2.59375 -11.765625 L 2.59375 0 L 1.171875 0 L 1.171875 -11.765625 Z M 2.59375 -11.765625 "/>
          </g>
        </g>
        <g style="fill:#0a0a0a;fill-opacity:1;">
          <g transform="translate(35.668911, 15.761368)">
            <path style="stroke:none" d="M 5.515625 -3.640625 C 4.859375 -3.617188 4.296875 -3.566406 3.828125 -3.484375 C 3.367188 -3.398438 2.992188 -3.289062 2.703125 -3.15625 C 2.421875 -3.03125 2.210938 -2.875 2.078125 -2.6875 C 1.953125 -2.507812 1.890625 -2.304688 1.890625 -2.078125 C 1.890625 -1.867188 1.921875 -1.6875 1.984375 -1.53125 C 2.054688 -1.375 2.148438 -1.242188 2.265625 -1.140625 C 2.390625 -1.046875 2.53125 -0.976562 2.6875 -0.9375 C 2.851562 -0.894531 3.03125 -0.875 3.21875 -0.875 C 3.46875 -0.875 3.695312 -0.894531 3.90625 -0.9375 C 4.113281 -0.988281 4.304688 -1.0625 4.484375 -1.15625 C 4.671875 -1.257812 4.847656 -1.375 5.015625 -1.5 C 5.179688 -1.632812 5.347656 -1.789062 5.515625 -1.96875 Z M 0.921875 -6.953125 C 1.367188 -7.378906 1.847656 -7.695312 2.359375 -7.90625 C 2.878906 -8.125 3.453125 -8.234375 4.078125 -8.234375 C 4.535156 -8.234375 4.9375 -8.15625 5.28125 -8 C 5.632812 -7.851562 5.929688 -7.644531 6.171875 -7.375 C 6.410156 -7.113281 6.59375 -6.796875 6.71875 -6.421875 C 6.84375 -6.046875 6.90625 -5.628906 6.90625 -5.171875 L 6.90625 0 L 6.265625 0 C 6.128906 0 6.023438 -0.0195312 5.953125 -0.0625 C 5.878906 -0.113281 5.816406 -0.203125 5.765625 -0.328125 L 5.609375 -1.109375 C 5.398438 -0.910156 5.191406 -0.734375 4.984375 -0.578125 C 4.785156 -0.421875 4.570312 -0.289062 4.34375 -0.1875 C 4.125 -0.09375 3.882812 -0.0195312 3.625 0.03125 C 3.375 0.09375 3.097656 0.125 2.796875 0.125 C 2.484375 0.125 2.1875 0.0820312 1.90625 0 C 1.632812 -0.09375 1.394531 -0.222656 1.1875 -0.390625 C 0.976562 -0.566406 0.8125 -0.789062 0.6875 -1.0625 C 0.570312 -1.332031 0.515625 -1.648438 0.515625 -2.015625 C 0.515625 -2.335938 0.601562 -2.644531 0.78125 -2.9375 C 0.957031 -3.238281 1.242188 -3.503906 1.640625 -3.734375 C 2.035156 -3.960938 2.546875 -4.148438 3.171875 -4.296875 C 3.804688 -4.441406 4.585938 -4.523438 5.515625 -4.546875 L 5.515625 -5.171875 C 5.515625 -5.796875 5.375 -6.269531 5.09375 -6.59375 C 4.820312 -6.914062 4.425781 -7.078125 3.90625 -7.078125 C 3.5625 -7.078125 3.269531 -7.03125 3.03125 -6.9375 C 2.789062 -6.851562 2.582031 -6.753906 2.40625 -6.640625 C 2.238281 -6.535156 2.09375 -6.441406 1.96875 -6.359375 C 1.84375 -6.273438 1.71875 -6.234375 1.59375 -6.234375 C 1.5 -6.234375 1.414062 -6.253906 1.34375 -6.296875 C 1.28125 -6.347656 1.222656 -6.410156 1.171875 -6.484375 Z M 0.921875 -6.953125 "/>
          </g>
        </g>
        <g style="fill:#0a0a0a;fill-opacity:1;">
          <g transform="translate(43.445024, 15.761368)">
            <path style="stroke:none" d="M 5.484375 -1.234375 C 5.921875 -1.234375 6.296875 -1.28125 6.609375 -1.375 C 6.929688 -1.476562 7.195312 -1.617188 7.40625 -1.796875 C 7.613281 -1.984375 7.765625 -2.203125 7.859375 -2.453125 C 7.953125 -2.710938 8 -2.992188 8 -3.296875 C 8 -3.890625 7.785156 -4.359375 7.359375 -4.703125 C 6.941406 -5.046875 6.316406 -5.21875 5.484375 -5.21875 L 3 -5.21875 L 3 -1.234375 Z M 3 -10.21875 L 3 -6.3125 L 5.046875 -6.3125 C 5.484375 -6.3125 5.863281 -6.359375 6.1875 -6.453125 C 6.507812 -6.554688 6.773438 -6.691406 6.984375 -6.859375 C 7.191406 -7.023438 7.34375 -7.226562 7.4375 -7.46875 C 7.539062 -7.71875 7.59375 -7.984375 7.59375 -8.265625 C 7.59375 -8.941406 7.390625 -9.4375 6.984375 -9.75 C 6.585938 -10.0625 5.960938 -10.21875 5.109375 -10.21875 Z M 5.109375 -11.4375 C 5.804688 -11.4375 6.410156 -11.367188 6.921875 -11.234375 C 7.429688 -11.097656 7.847656 -10.898438 8.171875 -10.640625 C 8.503906 -10.390625 8.75 -10.078125 8.90625 -9.703125 C 9.0625 -9.335938 9.140625 -8.921875 9.140625 -8.453125 C 9.140625 -8.171875 9.09375 -7.898438 9 -7.640625 C 8.914062 -7.390625 8.785156 -7.148438 8.609375 -6.921875 C 8.429688 -6.703125 8.207031 -6.5 7.9375 -6.3125 C 7.664062 -6.132812 7.351562 -5.992188 7 -5.890625 C 7.832031 -5.722656 8.460938 -5.421875 8.890625 -4.984375 C 9.316406 -4.546875 9.53125 -3.96875 9.53125 -3.25 C 9.53125 -2.769531 9.4375 -2.328125 9.25 -1.921875 C 9.070312 -1.523438 8.8125 -1.179688 8.46875 -0.890625 C 8.125 -0.609375 7.703125 -0.390625 7.203125 -0.234375 C 6.703125 -0.078125 6.132812 0 5.5 0 L 1.46875 0 L 1.46875 -11.4375 Z M 5.109375 -11.4375 "/>
          </g>
        </g>
        <g style="fill:#0a0a0a;fill-opacity:1;">
          <g transform="translate(53.608263, 15.761368)">
            <path style="stroke:none" d="M 2.59375 -11.765625 L 2.59375 0 L 1.171875 0 L 1.171875 -11.765625 Z M 2.59375 -11.765625 "/>
          </g>
        </g>
        <g style="fill:#0a0a0a;fill-opacity:1;">
          <g transform="translate(57.376577, 15.761368)">
            <path style="stroke:none" d="M 4.53125 -8.21875 C 5.125 -8.21875 5.65625 -8.117188 6.125 -7.921875 C 6.601562 -7.722656 7.007812 -7.441406 7.34375 -7.078125 C 7.675781 -6.722656 7.929688 -6.285156 8.109375 -5.765625 C 8.296875 -5.253906 8.390625 -4.679688 8.390625 -4.046875 C 8.390625 -3.410156 8.296875 -2.835938 8.109375 -2.328125 C 7.929688 -1.816406 7.675781 -1.378906 7.34375 -1.015625 C 7.007812 -0.648438 6.601562 -0.367188 6.125 -0.171875 C 5.65625 0.015625 5.125 0.109375 4.53125 0.109375 C 3.9375 0.109375 3.398438 0.015625 2.921875 -0.171875 C 2.453125 -0.367188 2.046875 -0.648438 1.703125 -1.015625 C 1.367188 -1.378906 1.113281 -1.816406 0.9375 -2.328125 C 0.757812 -2.835938 0.671875 -3.410156 0.671875 -4.046875 C 0.671875 -4.679688 0.757812 -5.253906 0.9375 -5.765625 C 1.113281 -6.285156 1.367188 -6.722656 1.703125 -7.078125 C 2.046875 -7.441406 2.453125 -7.722656 2.921875 -7.921875 C 3.398438 -8.117188 3.9375 -8.21875 4.53125 -8.21875 Z M 4.53125 -1 C 5.332031 -1 5.929688 -1.265625 6.328125 -1.796875 C 6.722656 -2.335938 6.921875 -3.085938 6.921875 -4.046875 C 6.921875 -5.003906 6.722656 -5.75 6.328125 -6.28125 C 5.929688 -6.820312 5.332031 -7.09375 4.53125 -7.09375 C 4.125 -7.09375 3.769531 -7.023438 3.46875 -6.890625 C 3.175781 -6.753906 2.925781 -6.554688 2.71875 -6.296875 C 2.519531 -6.035156 2.367188 -5.710938 2.265625 -5.328125 C 2.171875 -4.953125 2.125 -4.523438 2.125 -4.046875 C 2.125 -3.085938 2.320312 -2.335938 2.71875 -1.796875 C 3.125 -1.265625 3.726562 -1 4.53125 -1 Z M 4.53125 -1 "/>
          </g>
        </g>
        <g style="fill:#0a0a0a;fill-opacity:1;">
          <g transform="translate(66.430127, 15.761368)">
            <path style="stroke:none" d="M 6.75 -6.65625 C 6.707031 -6.59375 6.664062 -6.546875 6.625 -6.515625 C 6.582031 -6.484375 6.523438 -6.46875 6.453125 -6.46875 C 6.367188 -6.46875 6.28125 -6.5 6.1875 -6.5625 C 6.09375 -6.632812 5.972656 -6.707031 5.828125 -6.78125 C 5.691406 -6.863281 5.519531 -6.9375 5.3125 -7 C 5.101562 -7.070312 4.851562 -7.109375 4.5625 -7.109375 C 4.15625 -7.109375 3.800781 -7.035156 3.5 -6.890625 C 3.195312 -6.753906 2.941406 -6.550781 2.734375 -6.28125 C 2.535156 -6.019531 2.382812 -5.695312 2.28125 -5.3125 C 2.175781 -4.9375 2.125 -4.515625 2.125 -4.046875 C 2.125 -3.554688 2.175781 -3.117188 2.28125 -2.734375 C 2.394531 -2.359375 2.554688 -2.039062 2.765625 -1.78125 C 2.972656 -1.519531 3.21875 -1.320312 3.5 -1.1875 C 3.789062 -1.050781 4.117188 -0.984375 4.484375 -0.984375 C 4.828125 -0.984375 5.109375 -1.023438 5.328125 -1.109375 C 5.554688 -1.191406 5.742188 -1.285156 5.890625 -1.390625 C 6.035156 -1.492188 6.15625 -1.582031 6.25 -1.65625 C 6.351562 -1.738281 6.457031 -1.78125 6.5625 -1.78125 C 6.675781 -1.78125 6.765625 -1.738281 6.828125 -1.65625 L 7.21875 -1.140625 C 7.050781 -0.921875 6.851562 -0.734375 6.625 -0.578125 C 6.40625 -0.421875 6.164062 -0.289062 5.90625 -0.1875 C 5.644531 -0.0820312 5.375 -0.0078125 5.09375 0.03125 C 4.8125 0.0820312 4.523438 0.109375 4.234375 0.109375 C 3.722656 0.109375 3.25 0.015625 2.8125 -0.171875 C 2.382812 -0.359375 2.007812 -0.628906 1.6875 -0.984375 C 1.375 -1.335938 1.125 -1.769531 0.9375 -2.28125 C 0.757812 -2.800781 0.671875 -3.390625 0.671875 -4.046875 C 0.671875 -4.648438 0.753906 -5.207031 0.921875 -5.71875 C 1.085938 -6.226562 1.332031 -6.664062 1.65625 -7.03125 C 1.976562 -7.40625 2.375 -7.695312 2.84375 -7.90625 C 3.3125 -8.113281 3.851562 -8.21875 4.46875 -8.21875 C 5.039062 -8.21875 5.539062 -8.125 5.96875 -7.9375 C 6.40625 -7.757812 6.789062 -7.5 7.125 -7.15625 Z M 6.75 -6.65625 "/>
          </g>
        </g>
        <g style="fill:#0a0a0a;fill-opacity:1;">
          <g transform="translate(74.054587, 15.761368)">
            <path style="stroke:none" d="M 2.5625 -11.765625 L 2.5625 -4.84375 L 2.921875 -4.84375 C 3.023438 -4.84375 3.113281 -4.851562 3.1875 -4.875 C 3.257812 -4.90625 3.335938 -4.96875 3.421875 -5.0625 L 5.96875 -7.796875 C 6.039062 -7.890625 6.117188 -7.960938 6.203125 -8.015625 C 6.285156 -8.066406 6.398438 -8.09375 6.546875 -8.09375 L 7.828125 -8.09375 L 4.84375 -4.921875 C 4.695312 -4.734375 4.546875 -4.59375 4.390625 -4.5 C 4.484375 -4.4375 4.566406 -4.363281 4.640625 -4.28125 C 4.722656 -4.195312 4.796875 -4.101562 4.859375 -4 L 8.03125 0 L 6.75 0 C 6.632812 0 6.53125 -0.0195312 6.4375 -0.0625 C 6.351562 -0.101562 6.28125 -0.175781 6.21875 -0.28125 L 3.546875 -3.59375 C 3.472656 -3.707031 3.394531 -3.78125 3.3125 -3.8125 C 3.238281 -3.84375 3.125 -3.859375 2.96875 -3.859375 L 2.5625 -3.859375 L 2.5625 0 L 1.125 0 L 1.125 -11.765625 Z M 2.5625 -11.765625 "/>
          </g>
        </g>
        <g style="fill:#0a0a0a;fill-opacity:1;">
          <g transform="translate(82.166056, 15.761368)">
            <path style="stroke:none" d="M 5.84375 -6.75 C 5.769531 -6.632812 5.671875 -6.578125 5.546875 -6.578125 C 5.460938 -6.578125 5.367188 -6.601562 5.265625 -6.65625 C 5.171875 -6.71875 5.046875 -6.785156 4.890625 -6.859375 C 4.742188 -6.929688 4.570312 -7 4.375 -7.0625 C 4.175781 -7.125 3.9375 -7.15625 3.65625 -7.15625 C 3.414062 -7.15625 3.195312 -7.125 3 -7.0625 C 2.8125 -7 2.648438 -6.914062 2.515625 -6.8125 C 2.378906 -6.707031 2.273438 -6.582031 2.203125 -6.4375 C 2.128906 -6.300781 2.09375 -6.148438 2.09375 -5.984375 C 2.09375 -5.773438 2.148438 -5.597656 2.265625 -5.453125 C 2.390625 -5.316406 2.550781 -5.195312 2.75 -5.09375 C 2.945312 -5 3.171875 -4.910156 3.421875 -4.828125 C 3.671875 -4.753906 3.925781 -4.671875 4.1875 -4.578125 C 4.457031 -4.492188 4.71875 -4.398438 4.96875 -4.296875 C 5.21875 -4.191406 5.441406 -4.054688 5.640625 -3.890625 C 5.835938 -3.734375 5.992188 -3.539062 6.109375 -3.3125 C 6.234375 -3.082031 6.296875 -2.800781 6.296875 -2.46875 C 6.296875 -2.101562 6.226562 -1.757812 6.09375 -1.4375 C 5.957031 -1.125 5.757812 -0.847656 5.5 -0.609375 C 5.238281 -0.378906 4.914062 -0.195312 4.53125 -0.0625 C 4.15625 0.0625 3.722656 0.125 3.234375 0.125 C 2.671875 0.125 2.160156 0.0351562 1.703125 -0.140625 C 1.242188 -0.328125 0.851562 -0.566406 0.53125 -0.859375 L 0.875 -1.390625 C 0.914062 -1.460938 0.960938 -1.515625 1.015625 -1.546875 C 1.078125 -1.585938 1.15625 -1.609375 1.25 -1.609375 C 1.34375 -1.609375 1.441406 -1.570312 1.546875 -1.5 C 1.648438 -1.425781 1.773438 -1.34375 1.921875 -1.25 C 2.078125 -1.164062 2.265625 -1.082031 2.484375 -1 C 2.703125 -0.925781 2.976562 -0.890625 3.3125 -0.890625 C 3.582031 -0.890625 3.820312 -0.925781 4.03125 -1 C 4.238281 -1.070312 4.410156 -1.171875 4.546875 -1.296875 C 4.691406 -1.421875 4.796875 -1.5625 4.859375 -1.71875 C 4.921875 -1.875 4.953125 -2.046875 4.953125 -2.234375 C 4.953125 -2.453125 4.890625 -2.632812 4.765625 -2.78125 C 4.648438 -2.925781 4.492188 -3.050781 4.296875 -3.15625 C 4.109375 -3.257812 3.882812 -3.347656 3.625 -3.421875 C 3.375 -3.503906 3.113281 -3.585938 2.84375 -3.671875 C 2.582031 -3.753906 2.328125 -3.847656 2.078125 -3.953125 C 1.828125 -4.066406 1.601562 -4.207031 1.40625 -4.375 C 1.207031 -4.539062 1.046875 -4.742188 0.921875 -4.984375 C 0.804688 -5.222656 0.75 -5.519531 0.75 -5.875 C 0.75 -6.175781 0.8125 -6.46875 0.9375 -6.75 C 1.070312 -7.039062 1.257812 -7.289062 1.5 -7.5 C 1.75 -7.71875 2.050781 -7.890625 2.40625 -8.015625 C 2.757812 -8.148438 3.164062 -8.21875 3.625 -8.21875 C 4.15625 -8.21875 4.628906 -8.132812 5.046875 -7.96875 C 5.472656 -7.800781 5.84375 -7.570312 6.15625 -7.28125 Z M 5.84375 -6.75 "/>
          </g>
        </g>
      </g>
    </g>
    <g style="fill:#0a0a0a;fill-opacity:1;">
      <g transform="translate(90.029691, 57.92018)">
        <path style="stroke:none" d="M 5.015625 -16.96875 L 5.015625 -10.296875 L 12.859375 -10.296875 L 12.859375 -8.203125 L 5.015625 -8.203125 L 5.015625 0 L 2.4375 0 L 2.4375 -19.0625 L 14.1875 -19.0625 L 14.1875 -16.96875 Z M 5.015625 -16.96875 "/>
      </g>
    </g>
    <g style="fill:#0a0a0a;fill-opacity:1;">
      <g transform="translate(103.92281, 57.92018)">
        <path style="stroke:none" d="M 7.5625 -13.6875 C 8.539062 -13.6875 9.425781 -13.519531 10.21875 -13.1875 C 11.007812 -12.863281 11.679688 -12.398438 12.234375 -11.796875 C 12.796875 -11.191406 13.222656 -10.460938 13.515625 -9.609375 C 13.816406 -8.753906 13.96875 -7.800781 13.96875 -6.75 C 13.96875 -5.6875 13.816406 -4.726562 13.515625 -3.875 C 13.222656 -3.019531 12.796875 -2.289062 12.234375 -1.6875 C 11.679688 -1.082031 11.007812 -0.617188 10.21875 -0.296875 C 9.425781 0.0234375 8.539062 0.1875 7.5625 0.1875 C 6.5625 0.1875 5.664062 0.0234375 4.875 -0.296875 C 4.082031 -0.617188 3.40625 -1.082031 2.84375 -1.6875 C 2.289062 -2.289062 1.863281 -3.019531 1.5625 -3.875 C 1.269531 -4.726562 1.125 -5.6875 1.125 -6.75 C 1.125 -7.800781 1.269531 -8.753906 1.5625 -9.609375 C 1.863281 -10.460938 2.289062 -11.191406 2.84375 -11.796875 C 3.40625 -12.398438 4.082031 -12.863281 4.875 -13.1875 C 5.664062 -13.519531 6.5625 -13.6875 7.5625 -13.6875 Z M 7.5625 -1.65625 C 8.882812 -1.65625 9.875 -2.101562 10.53125 -3 C 11.1875 -3.894531 11.515625 -5.140625 11.515625 -6.734375 C 11.515625 -8.335938 11.1875 -9.585938 10.53125 -10.484375 C 9.875 -11.378906 8.882812 -11.828125 7.5625 -11.828125 C 6.882812 -11.828125 6.296875 -11.710938 5.796875 -11.484375 C 5.296875 -11.253906 4.878906 -10.921875 4.546875 -10.484375 C 4.210938 -10.046875 3.960938 -9.507812 3.796875 -8.875 C 3.628906 -8.238281 3.546875 -7.523438 3.546875 -6.734375 C 3.546875 -5.140625 3.875 -3.894531 4.53125 -3 C 5.195312 -2.101562 6.207031 -1.65625 7.5625 -1.65625 Z M 7.5625 -1.65625 "/>
      </g>
    </g>
    <g style="fill:#0a0a0a;fill-opacity:1;">
      <g transform="translate(119.013645, 57.92018)">
        <path style="stroke:none" d="M 4.125 -10.78125 C 4.550781 -11.695312 5.070312 -12.414062 5.6875 -12.9375 C 6.3125 -13.457031 7.070312 -13.71875 7.96875 -13.71875 C 8.25 -13.71875 8.519531 -13.6875 8.78125 -13.625 C 9.050781 -13.5625 9.285156 -13.460938 9.484375 -13.328125 L 9.3125 -11.5625 C 9.257812 -11.34375 9.128906 -11.234375 8.921875 -11.234375 C 8.796875 -11.234375 8.613281 -11.257812 8.375 -11.3125 C 8.132812 -11.363281 7.863281 -11.390625 7.5625 -11.390625 C 7.132812 -11.390625 6.753906 -11.328125 6.421875 -11.203125 C 6.085938 -11.078125 5.789062 -10.890625 5.53125 -10.640625 C 5.269531 -10.398438 5.035156 -10.097656 4.828125 -9.734375 C 4.617188 -9.378906 4.425781 -8.972656 4.25 -8.515625 L 4.25 0 L 1.875 0 L 1.875 -13.484375 L 3.234375 -13.484375 C 3.492188 -13.484375 3.671875 -13.429688 3.765625 -13.328125 C 3.859375 -13.234375 3.925781 -13.066406 3.96875 -12.828125 Z M 4.125 -10.78125 "/>
      </g>
    </g>
    <g style="fill:#0a0a0a;fill-opacity:1;">
      <g transform="translate(128.701594, 57.92018)">
        <path style="stroke:none" d="M 1.875 0 L 1.875 -13.484375 L 3.296875 -13.484375 C 3.640625 -13.484375 3.847656 -13.316406 3.921875 -12.984375 L 4.09375 -11.609375 C 4.59375 -12.210938 5.148438 -12.707031 5.765625 -13.09375 C 6.390625 -13.488281 7.109375 -13.6875 7.921875 -13.6875 C 8.828125 -13.6875 9.5625 -13.429688 10.125 -12.921875 C 10.6875 -12.421875 11.09375 -11.742188 11.34375 -10.890625 C 11.539062 -11.367188 11.789062 -11.785156 12.09375 -12.140625 C 12.40625 -12.492188 12.75 -12.785156 13.125 -13.015625 C 13.507812 -13.253906 13.914062 -13.425781 14.34375 -13.53125 C 14.78125 -13.632812 15.21875 -13.6875 15.65625 -13.6875 C 16.363281 -13.6875 16.992188 -13.570312 17.546875 -13.34375 C 18.109375 -13.125 18.582031 -12.796875 18.96875 -12.359375 C 19.351562 -11.921875 19.644531 -11.382812 19.84375 -10.75 C 20.050781 -10.125 20.15625 -9.398438 20.15625 -8.578125 L 20.15625 0 L 17.78125 0 L 17.78125 -8.578125 C 17.78125 -9.640625 17.546875 -10.441406 17.078125 -10.984375 C 16.617188 -11.523438 15.957031 -11.796875 15.09375 -11.796875 C 14.695312 -11.796875 14.320312 -11.726562 13.96875 -11.59375 C 13.625 -11.457031 13.316406 -11.253906 13.046875 -10.984375 C 12.785156 -10.722656 12.578125 -10.390625 12.421875 -9.984375 C 12.265625 -9.578125 12.1875 -9.109375 12.1875 -8.578125 L 12.1875 0 L 9.8125 0 L 9.8125 -8.578125 C 9.8125 -9.660156 9.59375 -10.46875 9.15625 -11 C 8.71875 -11.53125 8.082031 -11.796875 7.25 -11.796875 C 6.664062 -11.796875 6.125 -11.640625 5.625 -11.328125 C 5.132812 -11.015625 4.675781 -10.585938 4.25 -10.046875 L 4.25 0 Z M 1.875 0 "/>
      </g>
    </g>
    <g style="fill:#0a0a0a;fill-opacity:1;">
      <g transform="translate(150.592625, 57.92018)">
        <path style="stroke:none" d="M 9.1875 -6.0625 C 8.09375 -6.03125 7.160156 -5.941406 6.390625 -5.796875 C 5.617188 -5.660156 4.992188 -5.484375 4.515625 -5.265625 C 4.035156 -5.046875 3.6875 -4.785156 3.46875 -4.484375 C 3.25 -4.179688 3.140625 -3.84375 3.140625 -3.46875 C 3.140625 -3.113281 3.195312 -2.804688 3.3125 -2.546875 C 3.425781 -2.296875 3.582031 -2.085938 3.78125 -1.921875 C 3.976562 -1.753906 4.210938 -1.632812 4.484375 -1.5625 C 4.753906 -1.488281 5.046875 -1.453125 5.359375 -1.453125 C 5.773438 -1.453125 6.15625 -1.492188 6.5 -1.578125 C 6.851562 -1.660156 7.179688 -1.78125 7.484375 -1.9375 C 7.785156 -2.101562 8.078125 -2.296875 8.359375 -2.515625 C 8.640625 -2.734375 8.914062 -2.984375 9.1875 -3.265625 Z M 1.53125 -11.578125 C 2.269531 -12.296875 3.070312 -12.832031 3.9375 -13.1875 C 4.800781 -13.539062 5.753906 -13.71875 6.796875 -13.71875 C 7.546875 -13.71875 8.210938 -13.59375 8.796875 -13.34375 C 9.390625 -13.09375 9.882812 -12.742188 10.28125 -12.296875 C 10.6875 -11.859375 10.988281 -11.320312 11.1875 -10.6875 C 11.394531 -10.0625 11.5 -9.375 11.5 -8.625 L 11.5 0 L 10.4375 0 C 10.207031 0 10.03125 -0.0351562 9.90625 -0.109375 C 9.78125 -0.179688 9.6875 -0.332031 9.625 -0.5625 L 9.359375 -1.84375 C 9.003906 -1.507812 8.65625 -1.210938 8.3125 -0.953125 C 7.976562 -0.703125 7.625 -0.488281 7.25 -0.3125 C 6.875 -0.144531 6.472656 -0.015625 6.046875 0.078125 C 5.628906 0.171875 5.164062 0.21875 4.65625 0.21875 C 4.132812 0.21875 3.640625 0.144531 3.171875 0 C 2.710938 -0.144531 2.3125 -0.363281 1.96875 -0.65625 C 1.632812 -0.957031 1.363281 -1.332031 1.15625 -1.78125 C 0.957031 -2.226562 0.859375 -2.753906 0.859375 -3.359375 C 0.859375 -3.898438 1.003906 -4.414062 1.296875 -4.90625 C 1.597656 -5.394531 2.078125 -5.828125 2.734375 -6.203125 C 3.390625 -6.585938 4.242188 -6.898438 5.296875 -7.140625 C 6.347656 -7.390625 7.644531 -7.535156 9.1875 -7.578125 L 9.1875 -8.625 C 9.1875 -9.664062 8.957031 -10.453125 8.5 -10.984375 C 8.050781 -11.523438 7.390625 -11.796875 6.515625 -11.796875 C 5.929688 -11.796875 5.441406 -11.722656 5.046875 -11.578125 C 4.648438 -11.429688 4.304688 -11.265625 4.015625 -11.078125 C 3.734375 -10.898438 3.488281 -10.738281 3.28125 -10.59375 C 3.070312 -10.445312 2.863281 -10.375 2.65625 -10.375 C 2.5 -10.375 2.363281 -10.414062 2.25 -10.5 C 2.132812 -10.582031 2.035156 -10.6875 1.953125 -10.8125 Z M 1.53125 -11.578125 "/>
      </g>
    </g>
    <g style="fill:#0a0a0a;fill-opacity:1;">
      <g transform="translate(163.647394, 57.92018)">
        <path style="stroke:none" d="M 6.015625 0.21875 C 4.953125 0.21875 4.132812 -0.078125 3.5625 -0.671875 C 2.988281 -1.265625 2.703125 -2.125 2.703125 -3.25 L 2.703125 -11.5 L 1.078125 -11.5 C 0.929688 -11.5 0.8125 -11.539062 0.71875 -11.625 C 0.625 -11.707031 0.578125 -11.835938 0.578125 -12.015625 L 0.578125 -12.953125 L 2.78125 -13.234375 L 3.328125 -17.40625 C 3.347656 -17.539062 3.40625 -17.648438 3.5 -17.734375 C 3.59375 -17.816406 3.71875 -17.859375 3.875 -17.859375 L 5.0625 -17.859375 L 5.0625 -13.21875 L 8.96875 -13.21875 L 8.96875 -11.5 L 5.0625 -11.5 L 5.0625 -3.40625 C 5.0625 -2.832031 5.195312 -2.410156 5.46875 -2.140625 C 5.75 -1.867188 6.109375 -1.734375 6.546875 -1.734375 C 6.796875 -1.734375 7.007812 -1.765625 7.1875 -1.828125 C 7.375 -1.890625 7.53125 -1.960938 7.65625 -2.046875 C 7.789062 -2.128906 7.90625 -2.203125 8 -2.265625 C 8.09375 -2.335938 8.175781 -2.375 8.25 -2.375 C 8.375 -2.375 8.484375 -2.296875 8.578125 -2.140625 L 9.265625 -1.015625 C 8.859375 -0.628906 8.367188 -0.328125 7.796875 -0.109375 C 7.222656 0.109375 6.628906 0.21875 6.015625 0.21875 Z M 6.015625 0.21875 "/>
      </g>
    </g>
    <g style="fill:#0a0a0a;fill-opacity:1;">
      <g transform="translate(173.188957, 57.92018)">
        <path style="stroke:none" d=""/>
      </g>
    </g>
    <g style="fill:#0a0a0a;fill-opacity:1;">
      <g transform="translate(180.002456, 57.92018)">
        <path style="stroke:none" d="M 9.125 -2.046875 C 9.863281 -2.046875 10.5 -2.128906 11.03125 -2.296875 C 11.5625 -2.460938 12 -2.695312 12.34375 -3 C 12.6875 -3.3125 12.9375 -3.675781 13.09375 -4.09375 C 13.25 -4.519531 13.328125 -4.988281 13.328125 -5.5 C 13.328125 -6.476562 12.976562 -7.253906 12.28125 -7.828125 C 11.582031 -8.398438 10.53125 -8.6875 9.125 -8.6875 L 5 -8.6875 L 5 -2.046875 Z M 5 -17.03125 L 5 -10.53125 L 8.40625 -10.53125 C 9.132812 -10.53125 9.765625 -10.609375 10.296875 -10.765625 C 10.835938 -10.921875 11.28125 -11.140625 11.625 -11.421875 C 11.976562 -11.710938 12.238281 -12.054688 12.40625 -12.453125 C 12.582031 -12.859375 12.671875 -13.300781 12.671875 -13.78125 C 12.671875 -14.90625 12.332031 -15.726562 11.65625 -16.25 C 10.976562 -16.769531 9.929688 -17.03125 8.515625 -17.03125 Z M 8.515625 -19.0625 C 9.679688 -19.0625 10.6875 -18.945312 11.53125 -18.71875 C 12.382812 -18.488281 13.082031 -18.160156 13.625 -17.734375 C 14.175781 -17.304688 14.578125 -16.785156 14.828125 -16.171875 C 15.085938 -15.554688 15.21875 -14.863281 15.21875 -14.09375 C 15.21875 -13.625 15.144531 -13.171875 15 -12.734375 C 14.851562 -12.304688 14.632812 -11.90625 14.34375 -11.53125 C 14.050781 -11.15625 13.679688 -10.816406 13.234375 -10.515625 C 12.785156 -10.222656 12.257812 -9.988281 11.65625 -9.8125 C 13.050781 -9.539062 14.101562 -9.039062 14.8125 -8.3125 C 15.519531 -7.582031 15.875 -6.617188 15.875 -5.421875 C 15.875 -4.617188 15.722656 -3.882812 15.421875 -3.21875 C 15.128906 -2.550781 14.695312 -1.976562 14.125 -1.5 C 13.550781 -1.019531 12.847656 -0.648438 12.015625 -0.390625 C 11.179688 -0.128906 10.234375 0 9.171875 0 L 2.4375 0 L 2.4375 -19.0625 Z M 8.515625 -19.0625 "/>
      </g>
    </g>
    <g style="fill:#0a0a0a;fill-opacity:1;">
      <g transform="translate(196.943051, 57.92018)">
        <path style="stroke:none" d="M 4.328125 -19.59375 L 4.328125 0 L 1.953125 0 L 1.953125 -19.59375 Z M 4.328125 -19.59375 "/>
      </g>
    </g>
    <g style="fill:#0a0a0a;fill-opacity:1;">
      <g transform="translate(203.224251, 57.92018)">
        <path style="stroke:none" d="M 7.5625 -13.6875 C 8.539062 -13.6875 9.425781 -13.519531 10.21875 -13.1875 C 11.007812 -12.863281 11.679688 -12.398438 12.234375 -11.796875 C 12.796875 -11.191406 13.222656 -10.460938 13.515625 -9.609375 C 13.816406 -8.753906 13.96875 -7.800781 13.96875 -6.75 C 13.96875 -5.6875 13.816406 -4.726562 13.515625 -3.875 C 13.222656 -3.019531 12.796875 -2.289062 12.234375 -1.6875 C 11.679688 -1.082031 11.007812 -0.617188 10.21875 -0.296875 C 9.425781 0.0234375 8.539062 0.1875 7.5625 0.1875 C 6.5625 0.1875 5.664062 0.0234375 4.875 -0.296875 C 4.082031 -0.617188 3.40625 -1.082031 2.84375 -1.6875 C 2.289062 -2.289062 1.863281 -3.019531 1.5625 -3.875 C 1.269531 -4.726562 1.125 -5.6875 1.125 -6.75 C 1.125 -7.800781 1.269531 -8.753906 1.5625 -9.609375 C 1.863281 -10.460938 2.289062 -11.191406 2.84375 -11.796875 C 3.40625 -12.398438 4.082031 -12.863281 4.875 -13.1875 C 5.664062 -13.519531 6.5625 -13.6875 7.5625 -13.6875 Z M 7.5625 -1.65625 C 8.882812 -1.65625 9.875 -2.101562 10.53125 -3 C 11.1875 -3.894531 11.515625 -5.140625 11.515625 -6.734375 C 11.515625 -8.335938 11.1875 -9.585938 10.53125 -10.484375 C 9.875 -11.378906 8.882812 -11.828125 7.5625 -11.828125 C 6.882812 -11.828125 6.296875 -11.710938 5.796875 -11.484375 C 5.296875 -11.253906 4.878906 -10.921875 4.546875 -10.484375 C 4.210938 -10.046875 3.960938 -9.507812 3.796875 -8.875 C 3.628906 -8.238281 3.546875 -7.523438 3.546875 -6.734375 C 3.546875 -5.140625 3.875 -3.894531 4.53125 -3 C 5.195312 -2.101562 6.207031 -1.65625 7.5625 -1.65625 Z M 7.5625 -1.65625 "/>
      </g>
    </g>
    <g style="fill:#0a0a0a;fill-opacity:1;">
      <g transform="translate(218.315086, 57.92018)">
        <path style="stroke:none" d="M 11.25 -11.078125 C 11.1875 -10.984375 11.117188 -10.910156 11.046875 -10.859375 C 10.972656 -10.804688 10.875 -10.78125 10.75 -10.78125 C 10.613281 -10.78125 10.46875 -10.832031 10.3125 -10.9375 C 10.15625 -11.050781 9.957031 -11.175781 9.71875 -11.3125 C 9.476562 -11.445312 9.1875 -11.566406 8.84375 -11.671875 C 8.507812 -11.785156 8.09375 -11.84375 7.59375 -11.84375 C 6.925781 -11.84375 6.335938 -11.722656 5.828125 -11.484375 C 5.328125 -11.253906 4.90625 -10.914062 4.5625 -10.46875 C 4.226562 -10.03125 3.972656 -9.492188 3.796875 -8.859375 C 3.617188 -8.234375 3.53125 -7.53125 3.53125 -6.75 C 3.53125 -5.925781 3.625 -5.195312 3.8125 -4.5625 C 4 -3.9375 4.265625 -3.40625 4.609375 -2.96875 C 4.953125 -2.539062 5.363281 -2.210938 5.84375 -1.984375 C 6.332031 -1.765625 6.878906 -1.65625 7.484375 -1.65625 C 8.054688 -1.65625 8.523438 -1.722656 8.890625 -1.859375 C 9.265625 -1.992188 9.570312 -2.144531 9.8125 -2.3125 C 10.0625 -2.476562 10.269531 -2.628906 10.4375 -2.765625 C 10.601562 -2.910156 10.765625 -2.984375 10.921875 -2.984375 C 11.117188 -2.984375 11.269531 -2.90625 11.375 -2.75 L 12.046875 -1.890625 C 11.753906 -1.523438 11.421875 -1.210938 11.046875 -0.953125 C 10.671875 -0.703125 10.265625 -0.488281 9.828125 -0.3125 C 9.398438 -0.132812 8.953125 -0.0078125 8.484375 0.0625 C 8.015625 0.144531 7.535156 0.1875 7.046875 0.1875 C 6.203125 0.1875 5.421875 0.03125 4.703125 -0.28125 C 3.984375 -0.59375 3.351562 -1.039062 2.8125 -1.625 C 2.28125 -2.21875 1.863281 -2.941406 1.5625 -3.796875 C 1.269531 -4.660156 1.125 -5.644531 1.125 -6.75 C 1.125 -7.75 1.257812 -8.671875 1.53125 -9.515625 C 1.8125 -10.367188 2.21875 -11.101562 2.75 -11.71875 C 3.289062 -12.34375 3.953125 -12.828125 4.734375 -13.171875 C 5.523438 -13.515625 6.429688 -13.6875 7.453125 -13.6875 C 8.398438 -13.6875 9.234375 -13.53125 9.953125 -13.21875 C 10.679688 -12.914062 11.320312 -12.488281 11.875 -11.9375 Z M 11.25 -11.078125 "/>
      </g>
    </g>
    <g style="fill:#0a0a0a;fill-opacity:1;">
      <g transform="translate(231.023861, 57.92018)">
        <path style="stroke:none" d="M 4.25 -19.59375 L 4.25 -8.0625 L 4.875 -8.0625 C 5.050781 -8.0625 5.195312 -8.082031 5.3125 -8.125 C 5.4375 -8.175781 5.5625 -8.28125 5.6875 -8.4375 L 9.953125 -13 C 10.078125 -13.144531 10.207031 -13.257812 10.34375 -13.34375 C 10.476562 -13.4375 10.660156 -13.484375 10.890625 -13.484375 L 13.03125 -13.484375 L 8.078125 -8.203125 C 7.835938 -7.898438 7.578125 -7.660156 7.296875 -7.484375 C 7.460938 -7.378906 7.609375 -7.257812 7.734375 -7.125 C 7.859375 -6.988281 7.984375 -6.832031 8.109375 -6.65625 L 13.375 0 L 11.25 0 C 11.050781 0 10.878906 -0.03125 10.734375 -0.09375 C 10.585938 -0.164062 10.457031 -0.289062 10.34375 -0.46875 L 5.921875 -5.984375 C 5.785156 -6.171875 5.648438 -6.289062 5.515625 -6.34375 C 5.390625 -6.40625 5.195312 -6.4375 4.9375 -6.4375 L 4.25 -6.4375 L 4.25 0 L 1.875 0 L 1.875 -19.59375 Z M 4.25 -19.59375 "/>
      </g>
    </g>
    <g class="bbb-tabs-icon" clip-rule="nonzero" clip-path="url(#e9b3475db5)">
      <g clip-rule="nonzero" clip-path="url(#cdfc4c2cc9)">
        <g transform="matrix(1,0,0,1,0.000000000000000111,0)">
          <g clip-path="url(#73720cba4d)">
            <g clip-rule="nonzero" clip-path="url(#27cd2de40c)">
              <g clip-rule="nonzero" clip-path="url(#abbce51e2f)">
                <path style=" stroke:none;fill-rule:nonzero;fill:#036666;fill-opacity:1;" d="M 0.835938 0 L 76.203125 0 L 76.203125 75.363281 L 0.835938 75.363281 Z M 0.835938 0 "/>
              </g>
            </g>
          </g>
        </g>
      </g>
    </g>
    <path style="fill:none;stroke-width:1.5;stroke-linecap:round;stroke-linejoin:round;stroke:#ffffff;stroke-opacity:1;stroke-miterlimit:4;" d="M 9.812294 15.903371 L 8.99945 18.750809 L 8.186606 15.903371 C 8.08231 15.535853 7.931661 15.188201 7.737969 14.858759 C 7.544277 14.529317 7.312509 14.229674 7.042665 13.958174 C 6.771165 13.68833 6.471522 13.456562 6.14208 13.26287 C 5.812638 13.069178 5.464986 12.918529 5.097468 12.814233 L 2.25003 11.999734 L 5.095812 11.18689 C 5.46333 11.082594 5.812638 10.931945 6.14208 10.738253 C 6.471522 10.544561 6.771165 10.312793 7.041009 10.042948 C 7.310854 9.771448 7.544277 9.471805 7.737969 9.142363 C 7.931661 8.812922 8.080655 8.465269 8.186606 8.097751 L 8.99945 5.250314 L 9.812294 8.096096 C 9.918245 8.463614 10.067239 8.811266 10.260931 9.142363 C 10.454623 9.471805 10.688047 9.771448 10.957891 10.041293 C 11.227735 10.311137 11.527378 10.542905 11.85682 10.738253 C 12.186262 10.931945 12.53557 11.080938 12.903088 11.185234 L 15.750525 11.999734 L 12.904743 12.812578 C 12.537225 12.918529 12.187918 13.067523 11.858476 13.261215 C 11.529034 13.454906 11.229391 13.686675 10.959546 13.958174 C 10.688047 14.228019 10.456278 14.527662 10.262586 14.857104 C 10.068894 15.186546 9.918245 15.535853 9.813949 15.903371 Z M 18.258587 8.715248 L 18.000332 9.749927 L 17.74042 8.715248 C 17.667579 8.418916 17.555006 8.137483 17.404356 7.87095 C 17.253707 7.604416 17.069948 7.362715 16.853079 7.147502 C 16.637866 6.930633 16.396165 6.746874 16.129632 6.596225 C 15.864754 6.445576 15.583321 6.333002 15.285333 6.258506 L 14.250654 6.00025 L 15.285333 5.740338 C 15.583321 5.667497 15.864754 5.554924 16.129632 5.404274 C 16.396165 5.25197 16.637866 5.069866 16.853079 4.852997 C 17.069948 4.636128 17.253707 4.396083 17.404356 4.12955 C 17.555006 3.863016 17.667579 3.581583 17.74042 3.285251 L 18.000332 2.250572 L 18.258587 3.285251 C 18.333084 3.581583 18.445657 3.863016 18.596307 4.12955 C 18.746956 4.396083 18.930715 4.636128 19.147584 4.852997 C 19.362797 5.069866 19.604498 5.253625 19.871032 5.404274 C 20.137565 5.554924 20.418998 5.667497 20.71533 5.740338 L 21.750009 6.00025 L 20.71533 6.258506 C 20.418998 6.333002 20.137565 6.445576 19.871032 6.596225 C 19.604498 6.746874 19.362797 6.930633 19.147584 7.147502 C 18.930715 7.362715 18.746956 7.604416 18.596307 7.87095 C 18.445657 8.137483 18.333084 8.418916 18.258587 8.715248 Z M 16.894466 20.566878 L 16.500461 21.750551 L 16.106455 20.566878 C 15.993882 20.230814 15.813434 19.937793 15.5618 19.687814 C 15.311821 19.437836 15.0188 19.255732 14.682736 19.144814 L 13.500719 18.750809 L 14.682736 18.356803 C 15.0188 18.24423 15.311821 18.062126 15.5618 17.812148 C 15.813434 17.562169 15.993882 17.269148 16.106455 16.933084 L 16.500461 15.749411 L 16.894466 16.933084 C 17.005384 17.269148 17.187488 17.562169 17.437466 17.812148 C 17.687445 18.062126 17.980466 18.24423 18.31653 18.356803 L 19.500203 18.750809 L 18.31653 19.144814 C 17.980466 19.255732 17.687445 19.437836 17.437466 19.687814 C 17.187488 19.937793 17.005384 20.230814 16.894466 20.566878 Z M 16.894466 20.566878 " transform="matrix(2.359578,0,0,2.359578,10.335409,10.763819)"/>
  </g>
</svg>
