<svg xmlns="http://www.w3.org/2000/svg" xmlns:xlink="http://www.w3.org/1999/xlink" width="277" zoomAndPan="magnify" viewBox="0 0 207.75 77.249999" height="103" preserveAspectRatio="xMidYMid meet" version="1.0">
<style>
    g:not(.bbb-icon) { fill: #1B1B18 !important} @media (prefers-color-scheme:dark) { g:not(.bbb-icon) { fill: #fff !important } }
  </style>
<defs><g/><clipPath id="acdf52a80e"><path d="M 0.875 0 L 77 0 L 77 75.914062 L 0.875 75.914062 Z M 0.875 0 " clip-rule="nonzero"/></clipPath><clipPath id="78d20970a1"><path d="M 14.246094 0 L 63.457031 0 C 67 0 70.402344 1.410156 72.910156 3.917969 C 75.417969 6.421875 76.824219 9.824219 76.824219 13.371094 L 76.824219 62.542969 C 76.824219 66.089844 75.417969 69.488281 72.910156 71.996094 C 70.402344 74.503906 67 75.914062 63.457031 75.914062 L 14.246094 75.914062 C 10.699219 75.914062 7.296875 74.503906 4.792969 71.996094 C 2.285156 69.488281 0.875 66.089844 0.875 62.542969 L 0.875 13.371094 C 0.875 9.824219 2.285156 6.421875 4.792969 3.917969 C 7.296875 1.410156 10.699219 0 14.246094 0 Z M 14.246094 0 " clip-rule="nonzero"/></clipPath><clipPath id="d7f7f91978"><path d="M 0.875 0 L 76.789062 0 L 76.789062 75.914062 L 0.875 75.914062 Z M 0.875 0 " clip-rule="nonzero"/></clipPath><clipPath id="8e4f830950"><path d="M 14.246094 0 L 63.457031 0 C 67 0 70.402344 1.410156 72.910156 3.917969 C 75.417969 6.421875 76.824219 9.824219 76.824219 13.371094 L 76.824219 62.542969 C 76.824219 66.089844 75.417969 69.488281 72.910156 71.996094 C 70.402344 74.503906 67 75.914062 63.457031 75.914062 L 14.246094 75.914062 C 10.699219 75.914062 7.296875 74.503906 4.792969 71.996094 C 2.285156 69.488281 0.875 66.089844 0.875 62.542969 L 0.875 13.371094 C 0.875 9.824219 2.285156 6.421875 4.792969 3.917969 C 7.296875 1.410156 10.699219 0 14.246094 0 Z M 14.246094 0 " clip-rule="nonzero"/></clipPath><linearGradient x1="0.0325036" gradientTransform="matrix(0.296535, 0, 0, 0.296535, 0.874703, 0.000000990385)" y1="-0.0314964" x2="256.031999" gradientUnits="userSpaceOnUse" y2="255.969009" id="bb4c18112c"><stop stop-opacity="1" stop-color="rgb(0.389099%, 9.408569%, 33.329773%)" offset="0"/><stop stop-opacity="1" stop-color="rgb(0.395203%, 9.460449%, 33.467102%)" offset="0.0078125"/><stop stop-opacity="1" stop-color="rgb(0.40741%, 9.565735%, 33.74176%)" offset="0.015625"/><stop stop-opacity="1" stop-color="rgb(0.419617%, 9.669495%, 34.017944%)" offset="0.0234375"/><stop stop-opacity="1" stop-color="rgb(0.431824%, 9.773254%, 34.294128%)" offset="0.03125"/><stop stop-opacity="1" stop-color="rgb(0.444031%, 9.87854%, 34.568787%)" offset="0.0390625"/><stop stop-opacity="1" stop-color="rgb(0.457764%, 9.9823%, 34.844971%)" offset="0.046875"/><stop stop-opacity="1" stop-color="rgb(0.469971%, 10.08606%, 35.121155%)" offset="0.0546875"/><stop stop-opacity="1" stop-color="rgb(0.482178%, 10.189819%, 35.397339%)" offset="0.0625"/><stop stop-opacity="1" stop-color="rgb(0.494385%, 10.295105%, 35.671997%)" offset="0.0703125"/><stop stop-opacity="1" stop-color="rgb(0.506592%, 10.398865%, 35.948181%)" offset="0.078125"/><stop stop-opacity="1" stop-color="rgb(0.518799%, 10.502625%, 36.224365%)" offset="0.0859375"/><stop stop-opacity="1" stop-color="rgb(0.531006%, 10.60791%, 36.499023%)" offset="0.09375"/><stop stop-opacity="1" stop-color="rgb(0.543213%, 10.71167%, 36.775208%)" offset="0.101562"/><stop stop-opacity="1" stop-color="rgb(0.55542%, 10.81543%, 37.051392%)" offset="0.109375"/><stop stop-opacity="1" stop-color="rgb(0.567627%, 10.919189%, 37.32605%)" offset="0.117187"/><stop stop-opacity="1" stop-color="rgb(0.579834%, 11.024475%, 37.602234%)" offset="0.125"/><stop stop-opacity="1" stop-color="rgb(0.592041%, 11.128235%, 37.878418%)" offset="0.132813"/><stop stop-opacity="1" stop-color="rgb(0.605774%, 11.231995%, 38.153076%)" offset="0.140625"/><stop stop-opacity="1" stop-color="rgb(0.617981%, 11.33728%, 38.42926%)" offset="0.148438"/><stop stop-opacity="1" stop-color="rgb(0.630188%, 11.44104%, 38.705444%)" offset="0.15625"/><stop stop-opacity="1" stop-color="rgb(0.642395%, 11.5448%, 38.981628%)" offset="0.164062"/><stop stop-opacity="1" stop-color="rgb(0.654602%, 11.64856%, 39.256287%)" offset="0.171875"/><stop stop-opacity="1" stop-color="rgb(0.666809%, 11.753845%, 39.532471%)" offset="0.179688"/><stop stop-opacity="1" stop-color="rgb(0.679016%, 11.857605%, 39.808655%)" offset="0.1875"/><stop stop-opacity="1" stop-color="rgb(0.691223%, 11.961365%, 40.083313%)" offset="0.195312"/><stop stop-opacity="1" stop-color="rgb(0.70343%, 12.06665%, 40.359497%)" offset="0.203125"/><stop stop-opacity="1" stop-color="rgb(0.715637%, 12.17041%, 40.635681%)" offset="0.210938"/><stop stop-opacity="1" stop-color="rgb(0.727844%, 12.27417%, 40.910339%)" offset="0.21875"/><stop stop-opacity="1" stop-color="rgb(0.741577%, 12.37793%, 41.186523%)" offset="0.226562"/><stop stop-opacity="1" stop-color="rgb(0.753784%, 12.483215%, 41.462708%)" offset="0.234375"/><stop stop-opacity="1" stop-color="rgb(0.765991%, 12.586975%, 41.737366%)" offset="0.242187"/><stop stop-opacity="1" stop-color="rgb(0.778198%, 12.690735%, 42.01355%)" offset="0.25"/><stop stop-opacity="1" stop-color="rgb(0.790405%, 12.796021%, 42.289734%)" offset="0.257812"/><stop stop-opacity="1" stop-color="rgb(0.802612%, 12.89978%, 42.565918%)" offset="0.265625"/><stop stop-opacity="1" stop-color="rgb(0.814819%, 13.00354%, 42.840576%)" offset="0.273438"/><stop stop-opacity="1" stop-color="rgb(0.827026%, 13.1073%, 43.11676%)" offset="0.28125"/><stop stop-opacity="1" stop-color="rgb(0.839233%, 13.212585%, 43.392944%)" offset="0.289062"/><stop stop-opacity="1" stop-color="rgb(0.85144%, 13.316345%, 43.667603%)" offset="0.296875"/><stop stop-opacity="1" stop-color="rgb(0.863647%, 13.420105%, 43.943787%)" offset="0.304688"/><stop stop-opacity="1" stop-color="rgb(0.87738%, 13.525391%, 44.219971%)" offset="0.3125"/><stop stop-opacity="1" stop-color="rgb(0.889587%, 13.62915%, 44.494629%)" offset="0.320312"/><stop stop-opacity="1" stop-color="rgb(0.901794%, 13.73291%, 44.770813%)" offset="0.328125"/><stop stop-opacity="1" stop-color="rgb(0.914001%, 13.83667%, 45.046997%)" offset="0.335937"/><stop stop-opacity="1" stop-color="rgb(0.926208%, 13.941956%, 45.321655%)" offset="0.34375"/><stop stop-opacity="1" stop-color="rgb(0.938416%, 14.045715%, 45.597839%)" offset="0.351562"/><stop stop-opacity="1" stop-color="rgb(0.950623%, 14.149475%, 45.874023%)" offset="0.359375"/><stop stop-opacity="1" stop-color="rgb(0.96283%, 14.254761%, 46.148682%)" offset="0.367187"/><stop stop-opacity="1" stop-color="rgb(0.975037%, 14.358521%, 46.424866%)" offset="0.375"/><stop stop-opacity="1" stop-color="rgb(0.987244%, 14.46228%, 46.70105%)" offset="0.382812"/><stop stop-opacity="1" stop-color="rgb(0.999451%, 14.56604%, 46.977234%)" offset="0.390625"/><stop stop-opacity="1" stop-color="rgb(1.011658%, 14.671326%, 47.251892%)" offset="0.398438"/><stop stop-opacity="1" stop-color="rgb(1.025391%, 14.775085%, 47.528076%)" offset="0.40625"/><stop stop-opacity="1" stop-color="rgb(1.037598%, 14.878845%, 47.80426%)" offset="0.414062"/><stop stop-opacity="1" stop-color="rgb(1.049805%, 14.982605%, 48.078918%)" offset="0.421875"/><stop stop-opacity="1" stop-color="rgb(1.062012%, 15.087891%, 48.355103%)" offset="0.429688"/><stop stop-opacity="1" stop-color="rgb(1.074219%, 15.19165%, 48.631287%)" offset="0.4375"/><stop stop-opacity="1" stop-color="rgb(1.086426%, 15.29541%, 48.905945%)" offset="0.445312"/><stop stop-opacity="1" stop-color="rgb(1.098633%, 15.400696%, 49.182129%)" offset="0.453125"/><stop stop-opacity="1" stop-color="rgb(1.11084%, 15.504456%, 49.458313%)" offset="0.460937"/><stop stop-opacity="1" stop-color="rgb(1.123047%, 15.608215%, 49.732971%)" offset="0.46875"/><stop stop-opacity="1" stop-color="rgb(1.135254%, 15.711975%, 50.009155%)" offset="0.476562"/><stop stop-opacity="1" stop-color="rgb(1.147461%, 15.817261%, 50.285339%)" offset="0.484375"/><stop stop-opacity="1" stop-color="rgb(1.161194%, 15.921021%, 50.561523%)" offset="0.492187"/><stop stop-opacity="1" stop-color="rgb(1.173401%, 16.02478%, 50.836182%)" offset="0.499999"/><stop stop-opacity="1" stop-color="rgb(1.179504%, 16.078186%, 50.975037%)" offset="0.5"/><stop stop-opacity="1" stop-color="rgb(1.18866%, 16.127014%, 51.106262%)" offset="0.500001"/><stop stop-opacity="1" stop-color="rgb(1.197815%, 16.175842%, 51.239014%)" offset="0.507812"/><stop stop-opacity="1" stop-color="rgb(1.20697%, 16.22467%, 51.370239%)" offset="0.515625"/><stop stop-opacity="1" stop-color="rgb(1.225281%, 16.322327%, 51.63269%)" offset="0.523438"/><stop stop-opacity="1" stop-color="rgb(1.243591%, 16.419983%, 51.896667%)" offset="0.53125"/><stop stop-opacity="1" stop-color="rgb(1.261902%, 16.517639%, 52.159119%)" offset="0.539062"/><stop stop-opacity="1" stop-color="rgb(1.280212%, 16.616821%, 52.423096%)" offset="0.546875"/><stop stop-opacity="1" stop-color="rgb(1.296997%, 16.714478%, 52.687073%)" offset="0.554688"/><stop stop-opacity="1" stop-color="rgb(1.315308%, 16.812134%, 52.949524%)" offset="0.5625"/><stop stop-opacity="1" stop-color="rgb(1.333618%, 16.90979%, 53.213501%)" offset="0.570312"/><stop stop-opacity="1" stop-color="rgb(1.351929%, 17.007446%, 53.475952%)" offset="0.578125"/><stop stop-opacity="1" stop-color="rgb(1.370239%, 17.106628%, 53.739929%)" offset="0.585938"/><stop stop-opacity="1" stop-color="rgb(1.38855%, 17.204285%, 54.003906%)" offset="0.59375"/><stop stop-opacity="1" stop-color="rgb(1.40686%, 17.301941%, 54.266357%)" offset="0.601562"/><stop stop-opacity="1" stop-color="rgb(1.425171%, 17.399597%, 54.530334%)" offset="0.609375"/><stop stop-opacity="1" stop-color="rgb(1.443481%, 17.497253%, 54.794312%)" offset="0.617188"/><stop stop-opacity="1" stop-color="rgb(1.461792%, 17.596436%, 55.056763%)" offset="0.625"/><stop stop-opacity="1" stop-color="rgb(1.480103%, 17.694092%, 55.32074%)" offset="0.632812"/><stop stop-opacity="1" stop-color="rgb(1.498413%, 17.791748%, 55.583191%)" offset="0.640625"/><stop stop-opacity="1" stop-color="rgb(1.516724%, 17.889404%, 55.847168%)" offset="0.648438"/><stop stop-opacity="1" stop-color="rgb(1.535034%, 17.987061%, 56.111145%)" offset="0.65625"/><stop stop-opacity="1" stop-color="rgb(1.553345%, 18.084717%, 56.373596%)" offset="0.664062"/><stop stop-opacity="1" stop-color="rgb(1.571655%, 18.183899%, 56.637573%)" offset="0.671875"/><stop stop-opacity="1" stop-color="rgb(1.589966%, 18.281555%, 56.900024%)" offset="0.679688"/><stop stop-opacity="1" stop-color="rgb(1.608276%, 18.379211%, 57.164001%)" offset="0.6875"/><stop stop-opacity="1" stop-color="rgb(1.626587%, 18.476868%, 57.427979%)" offset="0.695312"/><stop stop-opacity="1" stop-color="rgb(1.644897%, 18.574524%, 57.69043%)" offset="0.703125"/><stop stop-opacity="1" stop-color="rgb(1.663208%, 18.673706%, 57.954407%)" offset="0.710938"/><stop stop-opacity="1" stop-color="rgb(1.681519%, 18.771362%, 58.216858%)" offset="0.71875"/><stop stop-opacity="1" stop-color="rgb(1.699829%, 18.869019%, 58.480835%)" offset="0.726562"/><stop stop-opacity="1" stop-color="rgb(1.71814%, 18.966675%, 58.744812%)" offset="0.734375"/><stop stop-opacity="1" stop-color="rgb(1.73645%, 19.064331%, 59.007263%)" offset="0.742188"/><stop stop-opacity="1" stop-color="rgb(1.754761%, 19.163513%, 59.27124%)" offset="0.75"/><stop stop-opacity="1" stop-color="rgb(1.773071%, 19.261169%, 59.533691%)" offset="0.757812"/><stop stop-opacity="1" stop-color="rgb(1.791382%, 19.358826%, 59.797668%)" offset="0.765625"/><stop stop-opacity="1" stop-color="rgb(1.809692%, 19.456482%, 60.061646%)" offset="0.773438"/><stop stop-opacity="1" stop-color="rgb(1.828003%, 19.554138%, 60.324097%)" offset="0.78125"/><stop stop-opacity="1" stop-color="rgb(1.846313%, 19.651794%, 60.588074%)" offset="0.789062"/><stop stop-opacity="1" stop-color="rgb(1.864624%, 19.750977%, 60.850525%)" offset="0.796875"/><stop stop-opacity="1" stop-color="rgb(1.882935%, 19.848633%, 61.114502%)" offset="0.804688"/><stop stop-opacity="1" stop-color="rgb(1.901245%, 19.946289%, 61.378479%)" offset="0.8125"/><stop stop-opacity="1" stop-color="rgb(1.919556%, 20.043945%, 61.64093%)" offset="0.820312"/><stop stop-opacity="1" stop-color="rgb(1.937866%, 20.141602%, 61.904907%)" offset="0.828125"/><stop stop-opacity="1" stop-color="rgb(1.956177%, 20.240784%, 62.167358%)" offset="0.835938"/><stop stop-opacity="1" stop-color="rgb(1.974487%, 20.33844%, 62.431335%)" offset="0.84375"/><stop stop-opacity="1" stop-color="rgb(1.992798%, 20.436096%, 62.695312%)" offset="0.851562"/><stop stop-opacity="1" stop-color="rgb(2.011108%, 20.533752%, 62.957764%)" offset="0.859375"/><stop stop-opacity="1" stop-color="rgb(2.029419%, 20.631409%, 63.221741%)" offset="0.867188"/><stop stop-opacity="1" stop-color="rgb(2.047729%, 20.730591%, 63.484192%)" offset="0.875"/><stop stop-opacity="1" stop-color="rgb(2.06604%, 20.828247%, 63.748169%)" offset="0.882812"/><stop stop-opacity="1" stop-color="rgb(2.084351%, 20.925903%, 64.012146%)" offset="0.890625"/><stop stop-opacity="1" stop-color="rgb(2.102661%, 21.02356%, 64.274597%)" offset="0.898438"/><stop stop-opacity="1" stop-color="rgb(2.119446%, 21.121216%, 64.538574%)" offset="0.90625"/><stop stop-opacity="1" stop-color="rgb(2.137756%, 21.220398%, 64.801025%)" offset="0.914062"/><stop stop-opacity="1" stop-color="rgb(2.156067%, 21.318054%, 65.065002%)" offset="0.921875"/><stop stop-opacity="1" stop-color="rgb(2.174377%, 21.41571%, 65.328979%)" offset="0.929688"/><stop stop-opacity="1" stop-color="rgb(2.192688%, 21.513367%, 65.591431%)" offset="0.9375"/><stop stop-opacity="1" stop-color="rgb(2.210999%, 21.611023%, 65.855408%)" offset="0.945312"/><stop stop-opacity="1" stop-color="rgb(2.229309%, 21.708679%, 66.117859%)" offset="0.953125"/><stop stop-opacity="1" stop-color="rgb(2.24762%, 21.807861%, 66.381836%)" offset="0.960938"/><stop stop-opacity="1" stop-color="rgb(2.26593%, 21.905518%, 66.645813%)" offset="0.96875"/><stop stop-opacity="1" stop-color="rgb(2.284241%, 22.003174%, 66.908264%)" offset="0.976562"/><stop stop-opacity="1" stop-color="rgb(2.302551%, 22.10083%, 67.172241%)" offset="0.984375"/><stop stop-opacity="1" stop-color="rgb(2.320862%, 22.198486%, 67.434692%)" offset="0.992188"/><stop stop-opacity="1" stop-color="rgb(2.339172%, 22.297668%, 67.698669%)" offset="1"/></linearGradient><clipPath id="78ae422e8c"><rect x="0" width="77" y="0" height="76"/></clipPath></defs><g clip-path="url(#acdf52a80e)"><g clip-path="url(#78d20970a1)"><g transform="matrix(1, 0, 0, 1, 0.000000000000000222, 0.000000000000000807)"><g clip-path="url(#78ae422e8c)"><g clip-path="url(#d7f7f91978)"><g clip-path="url(#8e4f830950)"><path fill="url(#bb4c18112c)" d="M 0.875 0 L 0.875 75.914062 L 76.789062 75.914062 L 76.789062 0 Z M 0.875 0 " fill-rule="nonzero"/></g></g></g></g></g></g><g fill="#0a0a0a" fill-opacity="1"><g transform="translate(85.739035, 26.257714)"><g><path d="M 1.109375 0 L 1.109375 -11.40625 L 5.515625 -11.40625 C 6.148438 -11.40625 6.703125 -11.269531 7.171875 -11 C 7.648438 -10.738281 8.019531 -10.382812 8.28125 -9.9375 C 8.550781 -9.5 8.6875 -9.007812 8.6875 -8.46875 C 8.6875 -7.851562 8.519531 -7.304688 8.1875 -6.828125 C 7.863281 -6.347656 7.429688 -6.019531 6.890625 -5.84375 L 6.875 -6.234375 C 7.613281 -6.015625 8.191406 -5.640625 8.609375 -5.109375 C 9.035156 -4.585938 9.25 -3.953125 9.25 -3.203125 C 9.25 -2.535156 9.109375 -1.960938 8.828125 -1.484375 C 8.546875 -1.015625 8.148438 -0.648438 7.640625 -0.390625 C 7.140625 -0.128906 6.550781 0 5.875 0 Z M 2.28125 -1.109375 L 5.59375 -1.109375 C 6.0625 -1.109375 6.476562 -1.191406 6.84375 -1.359375 C 7.21875 -1.523438 7.507812 -1.757812 7.71875 -2.0625 C 7.9375 -2.375 8.046875 -2.75 8.046875 -3.1875 C 8.046875 -3.601562 7.945312 -3.976562 7.75 -4.3125 C 7.550781 -4.65625 7.285156 -4.925781 6.953125 -5.125 C 6.617188 -5.332031 6.238281 -5.4375 5.8125 -5.4375 L 2.28125 -5.4375 Z M 2.28125 -6.546875 L 5.5 -6.546875 C 5.863281 -6.546875 6.195312 -6.628906 6.5 -6.796875 C 6.800781 -6.960938 7.039062 -7.1875 7.21875 -7.46875 C 7.394531 -7.757812 7.484375 -8.097656 7.484375 -8.484375 C 7.484375 -9.023438 7.296875 -9.460938 6.921875 -9.796875 C 6.554688 -10.140625 6.082031 -10.3125 5.5 -10.3125 L 2.28125 -10.3125 Z M 2.28125 -6.546875 "/></g></g></g><g fill="#0a0a0a" fill-opacity="1"><g transform="translate(95.450288, 26.257714)"><g><path d="M 1.265625 0 L 1.265625 -11.640625 L 2.4375 -11.640625 L 2.4375 0 Z M 1.265625 0 "/></g></g></g><g fill="#0a0a0a" fill-opacity="1"><g transform="translate(99.14944, 26.257714)"><g><path d="M 3.5625 0.234375 C 2.914062 0.234375 2.375 0.117188 1.9375 -0.109375 C 1.5 -0.335938 1.171875 -0.644531 0.953125 -1.03125 C 0.742188 -1.414062 0.640625 -1.835938 0.640625 -2.296875 C 0.640625 -2.765625 0.734375 -3.160156 0.921875 -3.484375 C 1.109375 -3.816406 1.363281 -4.085938 1.6875 -4.296875 C 2.007812 -4.515625 2.382812 -4.675781 2.8125 -4.78125 C 3.25 -4.882812 3.726562 -4.976562 4.25 -5.0625 C 4.769531 -5.144531 5.28125 -5.21875 5.78125 -5.28125 C 6.289062 -5.34375 6.738281 -5.398438 7.125 -5.453125 L 6.703125 -5.203125 C 6.722656 -6.046875 6.5625 -6.671875 6.21875 -7.078125 C 5.875 -7.484375 5.273438 -7.6875 4.421875 -7.6875 C 3.835938 -7.6875 3.34375 -7.554688 2.9375 -7.296875 C 2.539062 -7.035156 2.257812 -6.617188 2.09375 -6.046875 L 0.953125 -6.375 C 1.148438 -7.144531 1.546875 -7.738281 2.140625 -8.15625 C 2.734375 -8.582031 3.5 -8.796875 4.4375 -8.796875 C 5.21875 -8.796875 5.878906 -8.644531 6.421875 -8.34375 C 6.972656 -8.050781 7.363281 -7.628906 7.59375 -7.078125 C 7.695312 -6.828125 7.765625 -6.550781 7.796875 -6.25 C 7.828125 -5.945312 7.84375 -5.632812 7.84375 -5.3125 L 7.84375 0 L 6.8125 0 L 6.8125 -2.140625 L 7.109375 -2.015625 C 6.816406 -1.285156 6.363281 -0.726562 5.75 -0.34375 C 5.144531 0.0390625 4.414062 0.234375 3.5625 0.234375 Z M 3.6875 -0.765625 C 4.226562 -0.765625 4.703125 -0.863281 5.109375 -1.0625 C 5.523438 -1.257812 5.851562 -1.523438 6.09375 -1.859375 C 6.34375 -2.203125 6.503906 -2.585938 6.578125 -3.015625 C 6.640625 -3.296875 6.671875 -3.597656 6.671875 -3.921875 C 6.679688 -4.253906 6.6875 -4.503906 6.6875 -4.671875 L 7.140625 -4.4375 C 6.742188 -4.382812 6.3125 -4.332031 5.84375 -4.28125 C 5.382812 -4.226562 4.929688 -4.164062 4.484375 -4.09375 C 4.035156 -4.03125 3.632812 -3.945312 3.28125 -3.84375 C 3.039062 -3.78125 2.804688 -3.6875 2.578125 -3.5625 C 2.347656 -3.4375 2.160156 -3.269531 2.015625 -3.0625 C 1.867188 -2.851562 1.796875 -2.597656 1.796875 -2.296875 C 1.796875 -2.046875 1.859375 -1.804688 1.984375 -1.578125 C 2.109375 -1.347656 2.304688 -1.15625 2.578125 -1 C 2.859375 -0.84375 3.226562 -0.765625 3.6875 -0.765625 Z M 3.6875 -0.765625 "/></g></g></g><g fill="#0a0a0a" fill-opacity="1"><g transform="translate(107.949764, 26.257714)"><g><path d="M 1.109375 0 L 1.109375 -11.40625 L 5.515625 -11.40625 C 6.148438 -11.40625 6.703125 -11.269531 7.171875 -11 C 7.648438 -10.738281 8.019531 -10.382812 8.28125 -9.9375 C 8.550781 -9.5 8.6875 -9.007812 8.6875 -8.46875 C 8.6875 -7.851562 8.519531 -7.304688 8.1875 -6.828125 C 7.863281 -6.347656 7.429688 -6.019531 6.890625 -5.84375 L 6.875 -6.234375 C 7.613281 -6.015625 8.191406 -5.640625 8.609375 -5.109375 C 9.035156 -4.585938 9.25 -3.953125 9.25 -3.203125 C 9.25 -2.535156 9.109375 -1.960938 8.828125 -1.484375 C 8.546875 -1.015625 8.148438 -0.648438 7.640625 -0.390625 C 7.140625 -0.128906 6.550781 0 5.875 0 Z M 2.28125 -1.109375 L 5.59375 -1.109375 C 6.0625 -1.109375 6.476562 -1.191406 6.84375 -1.359375 C 7.21875 -1.523438 7.507812 -1.757812 7.71875 -2.0625 C 7.9375 -2.375 8.046875 -2.75 8.046875 -3.1875 C 8.046875 -3.601562 7.945312 -3.976562 7.75 -4.3125 C 7.550781 -4.65625 7.285156 -4.925781 6.953125 -5.125 C 6.617188 -5.332031 6.238281 -5.4375 5.8125 -5.4375 L 2.28125 -5.4375 Z M 2.28125 -6.546875 L 5.5 -6.546875 C 5.863281 -6.546875 6.195312 -6.628906 6.5 -6.796875 C 6.800781 -6.960938 7.039062 -7.1875 7.21875 -7.46875 C 7.394531 -7.757812 7.484375 -8.097656 7.484375 -8.484375 C 7.484375 -9.023438 7.296875 -9.460938 6.921875 -9.796875 C 6.554688 -10.140625 6.082031 -10.3125 5.5 -10.3125 L 2.28125 -10.3125 Z M 2.28125 -6.546875 "/></g></g></g><g fill="#0a0a0a" fill-opacity="1"><g transform="translate(117.661018, 26.257714)"><g><path d="M 1.265625 0 L 1.265625 -11.640625 L 2.4375 -11.640625 L 2.4375 0 Z M 1.265625 0 "/></g></g></g><g fill="#0a0a0a" fill-opacity="1"><g transform="translate(121.360169, 26.257714)"><g><path d="M 3.5625 0.234375 C 2.914062 0.234375 2.375 0.117188 1.9375 -0.109375 C 1.5 -0.335938 1.171875 -0.644531 0.953125 -1.03125 C 0.742188 -1.414062 0.640625 -1.835938 0.640625 -2.296875 C 0.640625 -2.765625 0.734375 -3.160156 0.921875 -3.484375 C 1.109375 -3.816406 1.363281 -4.085938 1.6875 -4.296875 C 2.007812 -4.515625 2.382812 -4.675781 2.8125 -4.78125 C 3.25 -4.882812 3.726562 -4.976562 4.25 -5.0625 C 4.769531 -5.144531 5.28125 -5.21875 5.78125 -5.28125 C 6.289062 -5.34375 6.738281 -5.398438 7.125 -5.453125 L 6.703125 -5.203125 C 6.722656 -6.046875 6.5625 -6.671875 6.21875 -7.078125 C 5.875 -7.484375 5.273438 -7.6875 4.421875 -7.6875 C 3.835938 -7.6875 3.34375 -7.554688 2.9375 -7.296875 C 2.539062 -7.035156 2.257812 -6.617188 2.09375 -6.046875 L 0.953125 -6.375 C 1.148438 -7.144531 1.546875 -7.738281 2.140625 -8.15625 C 2.734375 -8.582031 3.5 -8.796875 4.4375 -8.796875 C 5.21875 -8.796875 5.878906 -8.644531 6.421875 -8.34375 C 6.972656 -8.050781 7.363281 -7.628906 7.59375 -7.078125 C 7.695312 -6.828125 7.765625 -6.550781 7.796875 -6.25 C 7.828125 -5.945312 7.84375 -5.632812 7.84375 -5.3125 L 7.84375 0 L 6.8125 0 L 6.8125 -2.140625 L 7.109375 -2.015625 C 6.816406 -1.285156 6.363281 -0.726562 5.75 -0.34375 C 5.144531 0.0390625 4.414062 0.234375 3.5625 0.234375 Z M 3.6875 -0.765625 C 4.226562 -0.765625 4.703125 -0.863281 5.109375 -1.0625 C 5.523438 -1.257812 5.851562 -1.523438 6.09375 -1.859375 C 6.34375 -2.203125 6.503906 -2.585938 6.578125 -3.015625 C 6.640625 -3.296875 6.671875 -3.597656 6.671875 -3.921875 C 6.679688 -4.253906 6.6875 -4.503906 6.6875 -4.671875 L 7.140625 -4.4375 C 6.742188 -4.382812 6.3125 -4.332031 5.84375 -4.28125 C 5.382812 -4.226562 4.929688 -4.164062 4.484375 -4.09375 C 4.035156 -4.03125 3.632812 -3.945312 3.28125 -3.84375 C 3.039062 -3.78125 2.804688 -3.6875 2.578125 -3.5625 C 2.347656 -3.4375 2.160156 -3.269531 2.015625 -3.0625 C 1.867188 -2.851562 1.796875 -2.597656 1.796875 -2.296875 C 1.796875 -2.046875 1.859375 -1.804688 1.984375 -1.578125 C 2.109375 -1.347656 2.304688 -1.15625 2.578125 -1 C 2.859375 -0.84375 3.226562 -0.765625 3.6875 -0.765625 Z M 3.6875 -0.765625 "/></g></g></g><g fill="#0a0a0a" fill-opacity="1"><g transform="translate(130.160493, 26.257714)"><g><path d="M 1.109375 0 L 1.109375 -11.40625 L 5.515625 -11.40625 C 6.148438 -11.40625 6.703125 -11.269531 7.171875 -11 C 7.648438 -10.738281 8.019531 -10.382812 8.28125 -9.9375 C 8.550781 -9.5 8.6875 -9.007812 8.6875 -8.46875 C 8.6875 -7.851562 8.519531 -7.304688 8.1875 -6.828125 C 7.863281 -6.347656 7.429688 -6.019531 6.890625 -5.84375 L 6.875 -6.234375 C 7.613281 -6.015625 8.191406 -5.640625 8.609375 -5.109375 C 9.035156 -4.585938 9.25 -3.953125 9.25 -3.203125 C 9.25 -2.535156 9.109375 -1.960938 8.828125 -1.484375 C 8.546875 -1.015625 8.148438 -0.648438 7.640625 -0.390625 C 7.140625 -0.128906 6.550781 0 5.875 0 Z M 2.28125 -1.109375 L 5.59375 -1.109375 C 6.0625 -1.109375 6.476562 -1.191406 6.84375 -1.359375 C 7.21875 -1.523438 7.507812 -1.757812 7.71875 -2.0625 C 7.9375 -2.375 8.046875 -2.75 8.046875 -3.1875 C 8.046875 -3.601562 7.945312 -3.976562 7.75 -4.3125 C 7.550781 -4.65625 7.285156 -4.925781 6.953125 -5.125 C 6.617188 -5.332031 6.238281 -5.4375 5.8125 -5.4375 L 2.28125 -5.4375 Z M 2.28125 -6.546875 L 5.5 -6.546875 C 5.863281 -6.546875 6.195312 -6.628906 6.5 -6.796875 C 6.800781 -6.960938 7.039062 -7.1875 7.21875 -7.46875 C 7.394531 -7.757812 7.484375 -8.097656 7.484375 -8.484375 C 7.484375 -9.023438 7.296875 -9.460938 6.921875 -9.796875 C 6.554688 -10.140625 6.082031 -10.3125 5.5 -10.3125 L 2.28125 -10.3125 Z M 2.28125 -6.546875 "/></g></g></g><g fill="#0a0a0a" fill-opacity="1"><g transform="translate(139.871747, 26.257714)"><g><path d="M 1.265625 0 L 1.265625 -11.640625 L 2.4375 -11.640625 L 2.4375 0 Z M 1.265625 0 "/></g></g></g><g fill="#0a0a0a" fill-opacity="1"><g transform="translate(143.570898, 26.257714)"><g><path d="M 4.6875 0.234375 C 3.832031 0.234375 3.101562 0.0390625 2.5 -0.34375 C 1.894531 -0.726562 1.429688 -1.257812 1.109375 -1.9375 C 0.796875 -2.625 0.640625 -3.40625 0.640625 -4.28125 C 0.640625 -5.175781 0.800781 -5.960938 1.125 -6.640625 C 1.445312 -7.316406 1.910156 -7.84375 2.515625 -8.21875 C 3.128906 -8.601562 3.851562 -8.796875 4.6875 -8.796875 C 5.539062 -8.796875 6.269531 -8.601562 6.875 -8.21875 C 7.476562 -7.832031 7.9375 -7.300781 8.25 -6.625 C 8.570312 -5.945312 8.734375 -5.164062 8.734375 -4.28125 C 8.734375 -3.382812 8.570312 -2.597656 8.25 -1.921875 C 7.925781 -1.242188 7.460938 -0.710938 6.859375 -0.328125 C 6.253906 0.046875 5.53125 0.234375 4.6875 0.234375 Z M 4.6875 -0.875 C 5.632812 -0.875 6.335938 -1.1875 6.796875 -1.8125 C 7.265625 -2.445312 7.5 -3.269531 7.5 -4.28125 C 7.5 -5.320312 7.265625 -6.144531 6.796875 -6.75 C 6.328125 -7.363281 5.625 -7.671875 4.6875 -7.671875 C 4.039062 -7.671875 3.507812 -7.523438 3.09375 -7.234375 C 2.6875 -6.953125 2.378906 -6.554688 2.171875 -6.046875 C 1.972656 -5.535156 1.875 -4.945312 1.875 -4.28125 C 1.875 -3.25 2.109375 -2.421875 2.578125 -1.796875 C 3.054688 -1.179688 3.757812 -0.875 4.6875 -0.875 Z M 4.6875 -0.875 "/></g></g></g><g fill="#0a0a0a" fill-opacity="1"><g transform="translate(152.941541, 26.257714)"><g><path d="M 4.65625 0.234375 C 3.789062 0.234375 3.0625 0.0390625 2.46875 -0.34375 C 1.875 -0.726562 1.421875 -1.257812 1.109375 -1.9375 C 0.804688 -2.613281 0.648438 -3.394531 0.640625 -4.28125 C 0.648438 -5.175781 0.8125 -5.960938 1.125 -6.640625 C 1.4375 -7.316406 1.890625 -7.84375 2.484375 -8.21875 C 3.085938 -8.601562 3.816406 -8.796875 4.671875 -8.796875 C 5.535156 -8.796875 6.285156 -8.582031 6.921875 -8.15625 C 7.566406 -7.738281 8.007812 -7.160156 8.25 -6.421875 L 7.109375 -6.0625 C 6.910156 -6.570312 6.59375 -6.96875 6.15625 -7.25 C 5.71875 -7.53125 5.21875 -7.671875 4.65625 -7.671875 C 4.03125 -7.671875 3.507812 -7.523438 3.09375 -7.234375 C 2.6875 -6.953125 2.378906 -6.554688 2.171875 -6.046875 C 1.972656 -5.535156 1.875 -4.945312 1.875 -4.28125 C 1.882812 -3.25 2.117188 -2.421875 2.578125 -1.796875 C 3.046875 -1.179688 3.738281 -0.875 4.65625 -0.875 C 5.238281 -0.875 5.734375 -1.003906 6.140625 -1.265625 C 6.546875 -1.535156 6.859375 -1.929688 7.078125 -2.453125 L 8.25 -2.09375 C 7.925781 -1.332031 7.457031 -0.753906 6.84375 -0.359375 C 6.238281 0.0351562 5.507812 0.234375 4.65625 0.234375 Z M 4.65625 0.234375 "/></g></g></g><g fill="#0a0a0a" fill-opacity="1"><g transform="translate(161.710187, 26.257714)"><g><path d="M 1.09375 0 L 1.109375 -11.40625 L 2.28125 -11.40625 L 2.28125 -4.4375 L 6.09375 -8.5625 L 7.65625 -8.5625 L 3.640625 -4.28125 L 8.171875 0 L 6.484375 0 L 2.28125 -4.125 L 2.28125 0 Z M 1.09375 0 "/></g></g></g><g fill="#0a0a0a" fill-opacity="1"><g transform="translate(169.409465, 26.257714)"><g><path d="M 4.296875 0.234375 C 3.296875 0.234375 2.472656 0.0195312 1.828125 -0.40625 C 1.179688 -0.84375 0.785156 -1.445312 0.640625 -2.21875 L 1.828125 -2.421875 C 1.953125 -1.929688 2.238281 -1.539062 2.6875 -1.25 C 3.132812 -0.96875 3.691406 -0.828125 4.359375 -0.828125 C 5.015625 -0.828125 5.53125 -0.960938 5.90625 -1.234375 C 6.28125 -1.503906 6.46875 -1.878906 6.46875 -2.359375 C 6.46875 -2.617188 6.40625 -2.832031 6.28125 -3 C 6.164062 -3.164062 5.925781 -3.316406 5.5625 -3.453125 C 5.195312 -3.597656 4.648438 -3.769531 3.921875 -3.96875 C 3.148438 -4.175781 2.546875 -4.382812 2.109375 -4.59375 C 1.671875 -4.8125 1.359375 -5.054688 1.171875 -5.328125 C 0.984375 -5.609375 0.890625 -5.953125 0.890625 -6.359375 C 0.890625 -6.835938 1.023438 -7.257812 1.296875 -7.625 C 1.578125 -8 1.957031 -8.285156 2.4375 -8.484375 C 2.925781 -8.691406 3.492188 -8.796875 4.140625 -8.796875 C 4.785156 -8.796875 5.363281 -8.691406 5.875 -8.484375 C 6.382812 -8.273438 6.796875 -7.984375 7.109375 -7.609375 C 7.421875 -7.234375 7.601562 -6.796875 7.65625 -6.296875 L 6.46875 -6.078125 C 6.394531 -6.585938 6.144531 -6.988281 5.71875 -7.28125 C 5.300781 -7.570312 4.769531 -7.722656 4.125 -7.734375 C 3.519531 -7.742188 3.023438 -7.625 2.640625 -7.375 C 2.265625 -7.132812 2.078125 -6.8125 2.078125 -6.40625 C 2.078125 -6.175781 2.144531 -5.976562 2.28125 -5.8125 C 2.414062 -5.65625 2.664062 -5.503906 3.03125 -5.359375 C 3.394531 -5.222656 3.910156 -5.070312 4.578125 -4.90625 C 5.367188 -4.707031 5.988281 -4.492188 6.4375 -4.265625 C 6.882812 -4.046875 7.203125 -3.785156 7.390625 -3.484375 C 7.578125 -3.179688 7.671875 -2.8125 7.671875 -2.375 C 7.671875 -1.5625 7.367188 -0.921875 6.765625 -0.453125 C 6.171875 0.00390625 5.347656 0.234375 4.296875 0.234375 Z M 4.296875 0.234375 "/></g></g></g><g fill="#0a0a0a" fill-opacity="1"><g transform="translate(85.739035, 56.167315)"><g><path d="M 1.9375 0 L 1.9375 -19.96875 L 13.96875 -19.96875 L 13.96875 -16.625 L 5.28125 -16.625 L 5.28125 -11.640625 L 12.296875 -11.640625 L 12.296875 -8.3125 L 5.28125 -8.3125 L 5.28125 0 Z M 1.9375 0 "/></g></g></g><g fill="#0a0a0a" fill-opacity="1"><g transform="translate(99.838187, 56.167315)"><g><path d="M 8.5625 0.421875 C 7.0625 0.421875 5.75 0.0820312 4.625 -0.59375 C 3.507812 -1.269531 2.644531 -2.203125 2.03125 -3.390625 C 1.414062 -4.578125 1.109375 -5.941406 1.109375 -7.484375 C 1.109375 -9.054688 1.421875 -10.429688 2.046875 -11.609375 C 2.679688 -12.796875 3.554688 -13.722656 4.671875 -14.390625 C 5.785156 -15.054688 7.082031 -15.390625 8.5625 -15.390625 C 10.0625 -15.390625 11.367188 -15.050781 12.484375 -14.375 C 13.609375 -13.707031 14.476562 -12.773438 15.09375 -11.578125 C 15.71875 -10.390625 16.03125 -9.023438 16.03125 -7.484375 C 16.03125 -5.929688 15.71875 -4.5625 15.09375 -3.375 C 14.46875 -2.1875 13.59375 -1.253906 12.46875 -0.578125 C 11.351562 0.0859375 10.050781 0.421875 8.5625 0.421875 Z M 8.5625 -2.71875 C 9.882812 -2.71875 10.867188 -3.160156 11.515625 -4.046875 C 12.171875 -4.929688 12.5 -6.078125 12.5 -7.484375 C 12.5 -8.941406 12.171875 -10.101562 11.515625 -10.96875 C 10.859375 -11.832031 9.875 -12.265625 8.5625 -12.265625 C 7.65625 -12.265625 6.914062 -12.0625 6.34375 -11.65625 C 5.769531 -11.25 5.34375 -10.6875 5.0625 -9.96875 C 4.78125 -9.257812 4.640625 -8.429688 4.640625 -7.484375 C 4.640625 -6.035156 4.96875 -4.878906 5.625 -4.015625 C 6.289062 -3.148438 7.269531 -2.71875 8.5625 -2.71875 Z M 8.5625 -2.71875 "/></g></g></g><g fill="#0a0a0a" fill-opacity="1"><g transform="translate(116.97346, 56.167315)"><g><path d="M 1.9375 0 L 1.9375 -14.96875 L 4.890625 -14.96875 L 4.890625 -11.328125 L 4.53125 -11.796875 C 4.71875 -12.296875 4.960938 -12.75 5.265625 -13.15625 C 5.578125 -13.570312 5.953125 -13.914062 6.390625 -14.1875 C 6.765625 -14.4375 7.175781 -14.628906 7.625 -14.765625 C 8.070312 -14.910156 8.53125 -15 9 -15.03125 C 9.46875 -15.070312 9.925781 -15.050781 10.375 -14.96875 L 10.375 -11.859375 C 9.925781 -11.984375 9.410156 -12.019531 8.828125 -11.96875 C 8.253906 -11.925781 7.738281 -11.769531 7.28125 -11.5 C 6.820312 -11.25 6.445312 -10.925781 6.15625 -10.53125 C 5.863281 -10.144531 5.644531 -9.703125 5.5 -9.203125 C 5.363281 -8.710938 5.296875 -8.179688 5.296875 -7.609375 L 5.296875 0 Z M 1.9375 0 "/></g></g></g><g fill="#0a0a0a" fill-opacity="1"><g transform="translate(128.036526, 56.167315)"><g><path d="M 19.921875 0 L 19.921875 -9.09375 C 19.921875 -10.125 19.664062 -10.925781 19.15625 -11.5 C 18.65625 -12.082031 17.96875 -12.375 17.09375 -12.375 C 16.5625 -12.375 16.082031 -12.25 15.65625 -12 C 15.226562 -11.757812 14.890625 -11.398438 14.640625 -10.921875 C 14.390625 -10.441406 14.265625 -9.875 14.265625 -9.21875 L 12.78125 -10.09375 C 12.769531 -11.125 13.003906 -12.035156 13.484375 -12.828125 C 13.960938 -13.617188 14.609375 -14.234375 15.421875 -14.671875 C 16.234375 -15.117188 17.140625 -15.34375 18.140625 -15.34375 C 19.796875 -15.34375 21.0625 -14.847656 21.9375 -13.859375 C 22.820312 -12.867188 23.265625 -11.5625 23.265625 -9.9375 L 23.265625 0 Z M 1.90625 0 L 1.90625 -14.96875 L 4.875 -14.96875 L 4.875 -10.328125 L 5.28125 -10.328125 L 5.28125 0 Z M 10.9375 0 L 10.9375 -9.0625 C 10.9375 -10.101562 10.679688 -10.914062 10.171875 -11.5 C 9.671875 -12.082031 8.976562 -12.375 8.09375 -12.375 C 7.25 -12.375 6.566406 -12.082031 6.046875 -11.5 C 5.535156 -10.914062 5.28125 -10.15625 5.28125 -9.21875 L 3.78125 -10.21875 C 3.78125 -11.1875 4.019531 -12.054688 4.5 -12.828125 C 4.988281 -13.609375 5.640625 -14.222656 6.453125 -14.671875 C 7.273438 -15.117188 8.191406 -15.34375 9.203125 -15.34375 C 10.328125 -15.34375 11.265625 -15.101562 12.015625 -14.625 C 12.765625 -14.15625 13.328125 -13.507812 13.703125 -12.6875 C 14.078125 -11.875 14.265625 -10.953125 14.265625 -9.921875 L 14.265625 0 Z M 10.9375 0 "/></g></g></g><g fill="#0a0a0a" fill-opacity="1"><g transform="translate(152.963087, 56.167315)"><g><path d="M 6.125 0.421875 C 5.039062 0.421875 4.125 0.21875 3.375 -0.1875 C 2.632812 -0.601562 2.070312 -1.15625 1.6875 -1.84375 C 1.300781 -2.53125 1.109375 -3.285156 1.109375 -4.109375 C 1.109375 -4.828125 1.226562 -5.472656 1.46875 -6.046875 C 1.707031 -6.628906 2.078125 -7.128906 2.578125 -7.546875 C 3.078125 -7.972656 3.722656 -8.316406 4.515625 -8.578125 C 5.117188 -8.773438 5.820312 -8.953125 6.625 -9.109375 C 7.4375 -9.265625 8.316406 -9.410156 9.265625 -9.546875 C 10.210938 -9.679688 11.207031 -9.828125 12.25 -9.984375 L 11.046875 -9.3125 C 11.054688 -10.34375 10.828125 -11.101562 10.359375 -11.59375 C 9.890625 -12.082031 9.09375 -12.328125 7.96875 -12.328125 C 7.300781 -12.328125 6.648438 -12.171875 6.015625 -11.859375 C 5.390625 -11.546875 4.953125 -11.003906 4.703125 -10.234375 L 1.65625 -11.1875 C 2.019531 -12.457031 2.722656 -13.472656 3.765625 -14.234375 C 4.804688 -15.003906 6.207031 -15.390625 7.96875 -15.390625 C 9.300781 -15.390625 10.472656 -15.171875 11.484375 -14.734375 C 12.492188 -14.304688 13.25 -13.597656 13.75 -12.609375 C 14.007812 -12.078125 14.164062 -11.535156 14.21875 -10.984375 C 14.28125 -10.441406 14.3125 -9.84375 14.3125 -9.1875 L 14.3125 0 L 11.390625 0 L 11.390625 -3.25 L 11.875 -2.71875 C 11.195312 -1.632812 10.40625 -0.835938 9.5 -0.328125 C 8.601562 0.171875 7.476562 0.421875 6.125 0.421875 Z M 6.796875 -2.25 C 7.554688 -2.25 8.203125 -2.378906 8.734375 -2.640625 C 9.273438 -2.910156 9.703125 -3.238281 10.015625 -3.625 C 10.335938 -4.019531 10.550781 -4.390625 10.65625 -4.734375 C 10.832031 -5.148438 10.929688 -5.632812 10.953125 -6.1875 C 10.984375 -6.738281 11 -7.1875 11 -7.53125 L 12.015625 -7.21875 C 11.015625 -7.0625 10.148438 -6.921875 9.421875 -6.796875 C 8.703125 -6.679688 8.082031 -6.570312 7.5625 -6.46875 C 7.050781 -6.363281 6.597656 -6.242188 6.203125 -6.109375 C 5.804688 -5.972656 5.472656 -5.8125 5.203125 -5.625 C 4.941406 -5.445312 4.738281 -5.234375 4.59375 -4.984375 C 4.445312 -4.742188 4.375 -4.460938 4.375 -4.140625 C 4.375 -3.773438 4.46875 -3.453125 4.65625 -3.171875 C 4.84375 -2.890625 5.113281 -2.664062 5.46875 -2.5 C 5.820312 -2.332031 6.265625 -2.25 6.796875 -2.25 Z M 6.796875 -2.25 "/></g></g></g><g fill="#0a0a0a" fill-opacity="1"><g transform="translate(168.933831, 56.167315)"><g><path d="M 10.71875 0 C 9.726562 0.1875 8.757812 0.265625 7.8125 0.234375 C 6.863281 0.210938 6.015625 0.0390625 5.265625 -0.28125 C 4.515625 -0.613281 3.945312 -1.132812 3.5625 -1.84375 C 3.21875 -2.488281 3.035156 -3.148438 3.015625 -3.828125 C 3.003906 -4.503906 3 -5.265625 3 -6.109375 L 3 -19.140625 L 6.328125 -19.140625 L 6.328125 -6.3125 C 6.328125 -5.707031 6.332031 -5.175781 6.34375 -4.71875 C 6.351562 -4.269531 6.445312 -3.90625 6.625 -3.625 C 6.957031 -3.0625 7.488281 -2.75 8.21875 -2.6875 C 8.945312 -2.625 9.78125 -2.660156 10.71875 -2.796875 Z M 0.28125 -12.359375 L 0.28125 -14.96875 L 10.71875 -14.96875 L 10.71875 -12.359375 Z M 0.28125 -12.359375 "/></g></g></g><g fill="#0a0a0a" fill-opacity="1"><g transform="translate(180.939618, 56.167315)"><g><path d="M 7.71875 0.421875 C 5.875 0.421875 4.375 0.00390625 3.21875 -0.828125 C 2.0625 -1.660156 1.359375 -2.832031 1.109375 -4.34375 L 4.515625 -4.875 C 4.691406 -4.132812 5.082031 -3.550781 5.6875 -3.125 C 6.289062 -2.695312 7.046875 -2.484375 7.953125 -2.484375 C 8.765625 -2.484375 9.390625 -2.640625 9.828125 -2.953125 C 10.265625 -3.273438 10.484375 -3.710938 10.484375 -4.265625 C 10.484375 -4.609375 10.398438 -4.882812 10.234375 -5.09375 C 10.078125 -5.300781 9.722656 -5.5 9.171875 -5.6875 C 8.628906 -5.882812 7.796875 -6.132812 6.671875 -6.4375 C 5.410156 -6.769531 4.410156 -7.125 3.671875 -7.5 C 2.929688 -7.882812 2.398438 -8.34375 2.078125 -8.875 C 1.753906 -9.40625 1.59375 -10.039062 1.59375 -10.78125 C 1.59375 -11.71875 1.835938 -12.53125 2.328125 -13.21875 C 2.816406 -13.914062 3.5 -14.453125 4.375 -14.828125 C 5.257812 -15.203125 6.296875 -15.390625 7.484375 -15.390625 C 8.648438 -15.390625 9.679688 -15.207031 10.578125 -14.84375 C 11.484375 -14.488281 12.210938 -13.976562 12.765625 -13.3125 C 13.328125 -12.644531 13.671875 -11.863281 13.796875 -10.96875 L 10.390625 -10.359375 C 10.304688 -10.992188 10.015625 -11.492188 9.515625 -11.859375 C 9.023438 -12.234375 8.367188 -12.445312 7.546875 -12.5 C 6.753906 -12.539062 6.117188 -12.421875 5.640625 -12.140625 C 5.160156 -11.859375 4.921875 -11.460938 4.921875 -10.953125 C 4.921875 -10.671875 5.015625 -10.425781 5.203125 -10.21875 C 5.398438 -10.019531 5.789062 -9.816406 6.375 -9.609375 C 6.96875 -9.410156 7.847656 -9.160156 9.015625 -8.859375 C 10.203125 -8.554688 11.15625 -8.207031 11.875 -7.8125 C 12.59375 -7.414062 13.109375 -6.945312 13.421875 -6.40625 C 13.742188 -5.863281 13.90625 -5.203125 13.90625 -4.421875 C 13.90625 -2.910156 13.359375 -1.722656 12.265625 -0.859375 C 11.171875 -0.00390625 9.65625 0.421875 7.71875 0.421875 Z M 7.71875 0.421875 "/></g></g></g><path fill="#ffffff" d="M 32.328125 22.011719 C 32.695312 22.011719 33.019531 22.121094 33.3125 22.339844 C 33.601562 22.558594 33.796875 22.84375 33.898438 23.191406 L 35.664062 29.378906 C 35.855469 30.042969 36.125 30.675781 36.476562 31.273438 C 36.828125 31.867188 37.246094 32.410156 37.738281 32.902344 C 38.226562 33.390625 38.769531 33.8125 39.367188 34.164062 C 39.964844 34.515625 40.597656 34.785156 41.261719 34.976562 L 47.445312 36.742188 C 47.796875 36.84375 48.082031 37.039062 48.300781 37.328125 C 48.519531 37.617188 48.628906 37.945312 48.628906 38.308594 C 48.628906 38.671875 48.519531 39 48.300781 39.289062 C 48.082031 39.582031 47.796875 39.777344 47.445312 39.875 L 41.261719 41.644531 C 40.597656 41.832031 39.964844 42.105469 39.367188 42.453125 C 38.769531 42.804688 38.226562 43.226562 37.738281 43.714844 C 37.246094 44.207031 36.828125 44.75 36.476562 45.347656 C 36.125 45.945312 35.855469 46.574219 35.664062 47.242188 L 33.898438 53.425781 C 33.796875 53.777344 33.601562 54.058594 33.3125 54.277344 C 33.019531 54.496094 32.695312 54.605469 32.328125 54.605469 C 31.964844 54.605469 31.640625 54.496094 31.347656 54.277344 C 31.058594 54.058594 30.863281 53.777344 30.761719 53.425781 L 28.996094 47.242188 C 28.804688 46.574219 28.535156 45.945312 28.183594 45.347656 C 27.832031 44.75 27.414062 44.207031 26.921875 43.714844 C 26.433594 43.226562 25.890625 42.804688 25.292969 42.453125 C 24.695312 42.105469 24.0625 41.832031 23.398438 41.644531 L 17.210938 39.875 C 16.863281 39.777344 16.578125 39.582031 16.359375 39.289062 C 16.140625 39 16.03125 38.671875 16.03125 38.308594 C 16.03125 37.945312 16.140625 37.617188 16.359375 37.328125 C 16.578125 37.039062 16.863281 36.84375 17.210938 36.742188 L 23.398438 34.976562 C 24.0625 34.785156 24.695312 34.515625 25.292969 34.164062 C 25.890625 33.8125 26.433594 33.390625 26.921875 32.902344 C 27.414062 32.410156 27.832031 31.867188 28.183594 31.273438 C 28.535156 30.675781 28.804688 30.042969 28.996094 29.378906 L 30.761719 23.191406 C 30.863281 22.84375 31.058594 22.558594 31.347656 22.339844 C 31.640625 22.121094 31.964844 22.011719 32.328125 22.011719 Z M 51.890625 15.488281 C 52.261719 15.488281 52.597656 15.605469 52.890625 15.835938 C 53.1875 16.066406 53.378906 16.363281 53.472656 16.722656 L 54.03125 18.976562 C 54.542969 21.019531 56.140625 22.613281 58.183594 23.125 L 60.433594 23.6875 C 60.796875 23.777344 61.09375 23.96875 61.324219 24.265625 C 61.558594 24.558594 61.671875 24.894531 61.671875 25.269531 C 61.671875 25.644531 61.558594 25.980469 61.324219 26.273438 C 61.09375 26.570312 60.796875 26.761719 60.433594 26.851562 L 58.183594 27.414062 C 56.140625 27.925781 54.542969 29.519531 54.03125 31.5625 L 53.472656 33.816406 C 53.382812 34.179688 53.1875 34.476562 52.894531 34.707031 C 52.597656 34.9375 52.261719 35.054688 51.890625 35.054688 C 51.515625 35.054688 51.179688 34.9375 50.882812 34.707031 C 50.589844 34.476562 50.398438 34.179688 50.308594 33.816406 L 49.746094 31.5625 C 49.621094 31.0625 49.429688 30.585938 49.175781 30.136719 C 48.921875 29.6875 48.609375 29.277344 48.246094 28.914062 C 47.878906 28.546875 47.472656 28.238281 47.023438 27.984375 C 46.574219 27.726562 46.097656 27.539062 45.59375 27.414062 L 43.34375 26.851562 C 42.980469 26.761719 42.683594 26.570312 42.453125 26.273438 C 42.222656 25.980469 42.105469 25.644531 42.105469 25.269531 C 42.105469 24.894531 42.222656 24.558594 42.453125 24.265625 C 42.683594 23.96875 42.980469 23.777344 43.34375 23.6875 L 45.59375 23.125 C 46.097656 23 46.574219 22.8125 47.023438 22.558594 C 47.472656 22.300781 47.878906 21.992188 48.246094 21.625 C 48.609375 21.261719 48.921875 20.851562 49.175781 20.402344 C 49.429688 19.953125 49.621094 19.476562 49.746094 18.976562 L 50.308594 16.722656 C 50.398438 16.363281 50.589844 16.066406 50.886719 15.835938 C 51.179688 15.605469 51.515625 15.488281 51.890625 15.488281 Z M 48.628906 44.828125 C 48.980469 44.828125 49.296875 44.929688 49.582031 45.136719 C 49.867188 45.339844 50.066406 45.609375 50.175781 45.945312 L 51.03125 48.515625 C 51.359375 49.484375 52.121094 50.25 53.09375 50.574219 L 55.664062 51.433594 C 55.996094 51.542969 56.265625 51.742188 56.46875 52.027344 C 56.671875 52.3125 56.773438 52.628906 56.773438 52.976562 C 56.773438 53.328125 56.671875 53.644531 56.46875 53.929688 C 56.265625 54.214844 55.996094 54.414062 55.664062 54.523438 L 53.09375 55.382812 C 52.121094 55.707031 51.355469 56.46875 51.03125 57.441406 L 50.175781 60.011719 C 50.0625 60.34375 49.863281 60.613281 49.582031 60.816406 C 49.296875 61.023438 48.980469 61.125 48.628906 61.125 C 48.277344 61.125 47.960938 61.023438 47.675781 60.816406 C 47.394531 60.613281 47.195312 60.34375 47.082031 60.011719 L 46.226562 57.441406 C 46.0625 56.957031 45.800781 56.53125 45.4375 56.167969 C 45.074219 55.808594 44.652344 55.542969 44.164062 55.382812 L 41.59375 54.523438 C 41.261719 54.414062 40.996094 54.214844 40.789062 53.929688 C 40.585938 53.644531 40.484375 53.328125 40.484375 52.976562 C 40.484375 52.628906 40.585938 52.3125 40.789062 52.027344 C 40.996094 51.742188 41.261719 51.542969 41.59375 51.433594 L 44.164062 50.574219 C 45.136719 50.25 45.902344 49.488281 46.226562 48.515625 L 47.082031 45.945312 C 47.195312 45.609375 47.390625 45.34375 47.675781 45.136719 C 47.960938 44.933594 48.277344 44.828125 48.628906 44.828125 Z M 48.628906 44.828125 " fill-opacity="1" fill-rule="evenodd"/></svg>