<svg xmlns="http://www.w3.org/2000/svg" xmlns:xlink="http://www.w3.org/1999/xlink" version="1.2"
  viewBox="0 0 199.5 76.5">
   <style>
    g:not(.bbb-icon) { fill: #1B1B18 !important} @media (prefers-color-scheme:dark) { g:not(.bbb-icon) { fill: #fff !important } }
  </style>
  <defs>
    <path id="a"
      d="M16.047 0h44.105c8.645 0 15.649 7.004 15.649 15.648v44.067c0 8.644-7.004 15.648-15.649 15.648H16.047C7.407 75.363.398 68.36.398 59.715V15.648C.398 7.004 7.406 0 16.047 0Zm0 0" />
    <path id="c"
      d="M5.484-1.234c.438 0 .813-.047 1.125-.141.32-.102.586-.242.797-.422a1.67 1.67 0 0 0 .453-.656A2.45 2.45 0 0 0 8-3.297c0-.594-.215-1.062-.64-1.406-.419-.344-1.044-.516-1.876-.516H3v3.985ZM3-10.22v3.906h2.047a4.12 4.12 0 0 0 1.14-.14c.32-.102.586-.238.797-.406a1.43 1.43 0 0 0 .454-.61 2.1 2.1 0 0 0 .156-.797c0-.675-.203-1.171-.61-1.484-.398-.313-1.023-.469-1.875-.469Zm2.11-1.219c.695 0 1.3.07 1.812.204.508.136.926.336 1.25.593.332.25.578.563.734.938.156.367.235.781.235 1.25 0 .281-.047.555-.141.812a2.49 2.49 0 0 1-.39.72c-.18.218-.403.421-.672.609-.274.18-.586.32-.938.421.832.168 1.46.47 1.89.907.426.437.641 1.015.641 1.734 0 .48-.094.922-.281 1.328-.18.399-.438.742-.781 1.031-.344.282-.766.5-1.266.657C6.703-.078 6.133 0 5.5 0H1.469v-11.438Zm0 0"
      style="stroke:none" />
    <path id="d" d="M2.594-11.766V0H1.172v-11.766Zm0 0" style="stroke:none" />
    <path id="e"
      d="M5.516-3.64c-.657.023-1.22.074-1.688.156-.46.086-.836.195-1.125.328-.281.125-.492.281-.625.469a1.04 1.04 0 0 0-.187.609c0 .21.03.39.093.547.07.156.164.289.282.39.125.094.265.164.421.204.165.042.344.062.532.062.25 0 .476-.02.687-.063.207-.05.399-.125.578-.218a4.44 4.44 0 0 0 .532-.344c.164-.133.332-.29.5-.469ZM.922-6.954a4.633 4.633 0 0 1 1.437-.953 4.39 4.39 0 0 1 1.72-.328c.456 0 .859.078 1.202.234.352.148.649.355.89.625.24.262.423.578.548.953.125.375.187.793.187 1.25V0h-.64a.614.614 0 0 1-.313-.063.574.574 0 0 1-.187-.265l-.157-.781a7.08 7.08 0 0 1-.625.53c-.199.157-.414.29-.64.391a3.662 3.662 0 0 1-.719.22c-.25.062-.527.093-.828.093-.313 0-.61-.043-.89-.125a2.319 2.319 0 0 1-.72-.39 1.86 1.86 0 0 1-.5-.672c-.117-.27-.171-.586-.171-.954 0-.32.086-.629.265-.921.176-.301.461-.567.86-.797.394-.227.906-.414 1.53-.563.634-.144 1.415-.226 2.345-.25v-.625c0-.625-.141-1.098-.422-1.422-.274-.32-.668-.484-1.188-.484-.344 0-.636.047-.875.14a3.03 3.03 0 0 0-.625.297c-.168.106-.312.2-.437.282a.653.653 0 0 1-.375.125.476.476 0 0 1-.25-.063.885.885 0 0 1-.172-.187Zm0 0"
      style="stroke:none" />
  </defs>
  <defs>
    <clipPath id="b">
      <path d="M0 0h91v20H0z" />
    </clipPath>
    <clipPath id="f">
      <path d="M.398 0H76v75.363H.398Zm0 0" />
    </clipPath>
    <clipPath id="g">
      <use xlink:href="#a" />
    </clipPath>
    <clipPath id="i">
      <path d="M.398 0h75.586v75.363H.398Zm0 0" />
    </clipPath>
    <clipPath id="j">
      <use xlink:href="#a" />
    </clipPath>
    <clipPath id="h">
      <path d="M0 0h76v76H0z" />
    </clipPath>
  </defs>
  <g clip-path="url(#b)" transform="translate(89 12)">
    <g style="fill:#0a0a0a;fill-opacity:1">
      <use xlink:href="#c" style="stroke:none" transform="translate(.591 15.761)" />
    </g>
    <g style="fill:#0a0a0a;fill-opacity:1">
      <use xlink:href="#d" style="stroke:none" transform="translate(10.755 15.761)" />
    </g>
    <g style="fill:#0a0a0a;fill-opacity:1">
      <use xlink:href="#e" style="stroke:none" transform="translate(14.523 15.761)" />
    </g>
    <g style="fill:#0a0a0a;fill-opacity:1">
      <use xlink:href="#c" style="stroke:none" transform="translate(22.299 15.761)" />
    </g>
    <g style="fill:#0a0a0a;fill-opacity:1">
      <use xlink:href="#d" style="stroke:none" transform="translate(32.462 15.761)" />
    </g>
    <g style="fill:#0a0a0a;fill-opacity:1">
      <use xlink:href="#e" style="stroke:none" transform="translate(36.23 15.761)" />
    </g>
    <g style="fill:#0a0a0a;fill-opacity:1">
      <use xlink:href="#c" style="stroke:none" transform="translate(44.007 15.761)" />
    </g>
    <g style="fill:#0a0a0a;fill-opacity:1">
      <use xlink:href="#d" style="stroke:none" transform="translate(54.17 15.761)" />
    </g>
    <g style="fill:#0a0a0a;fill-opacity:1">
      <path
        d="M4.531-8.219a4.11 4.11 0 0 1 1.594.297c.477.2.883.48 1.219.844.332.355.586.793.765 1.312.188.512.282 1.086.282 1.72 0 .636-.094 1.21-.282 1.718-.18.512-.433.95-.765 1.312a3.35 3.35 0 0 1-1.219.844c-.469.188-1 .281-1.594.281a4.375 4.375 0 0 1-1.61-.28 3.487 3.487 0 0 1-1.218-.845c-.336-.363-.59-.8-.766-1.312C.758-2.836.672-3.41.672-4.047c0-.633.086-1.207.265-1.719.176-.52.43-.957.766-1.312.344-.363.75-.645 1.219-.844a4.22 4.22 0 0 1 1.61-.297Zm0 7.219c.801 0 1.399-.266 1.797-.797.395-.539.594-1.289.594-2.25 0-.957-.2-1.703-.594-2.234-.398-.54-.996-.813-1.797-.813-.406 0-.761.07-1.062.203a2.085 2.085 0 0 0-.75.594c-.2.262-.352.586-.453.969a5.304 5.304 0 0 0-.141 1.281c0 .961.195 1.711.594 2.25C3.125-1.266 3.727-1 4.53-1Zm0 0"
        style="stroke:none" transform="translate(57.938 15.761)" />
    </g>
    <g style="fill:#0a0a0a;fill-opacity:1">
      <path
        d="M6.75-6.656a.658.658 0 0 1-.125.14.289.289 0 0 1-.172.047.478.478 0 0 1-.266-.093 2.546 2.546 0 0 0-.359-.22A2.297 2.297 0 0 0 5.312-7c-.21-.07-.46-.11-.75-.11-.406 0-.761.075-1.062.22-.305.136-.559.34-.766.609a2.756 2.756 0 0 0-.453.968 4.678 4.678 0 0 0-.156 1.266c0 .492.05.93.156 1.313.114.375.274.695.485.953.207.261.453.46.734.593.29.137.617.204.984.204.344 0 .625-.04.844-.125.227-.082.414-.176.563-.282a8.05 8.05 0 0 0 .359-.265.5.5 0 0 1 .313-.125c.113 0 .203.043.265.125l.39.515a2.619 2.619 0 0 1-.593.563 3.32 3.32 0 0 1-.719.39c-.261.106-.531.18-.812.22a4.85 4.85 0 0 1-.86.077c-.511 0-.984-.093-1.421-.28a3.244 3.244 0 0 1-1.126-.813 4 4 0 0 1-.75-1.297c-.18-.52-.265-1.11-.265-1.766 0-.601.082-1.16.25-1.672.164-.508.41-.945.734-1.312.32-.375.719-.664 1.188-.875.469-.207 1.008-.313 1.625-.313.57 0 1.07.094 1.5.281.437.18.82.438 1.156.782Zm0 0"
        style="stroke:none" transform="translate(66.992 15.761)" />
    </g>
    <g style="fill:#0a0a0a;fill-opacity:1">
      <path
        d="M2.563-11.766v6.922h.359a.902.902 0 0 0 .265-.031.764.764 0 0 0 .235-.188l2.547-2.734a.88.88 0 0 1 .234-.219.649.649 0 0 1 .344-.078h1.281L4.844-4.922a1.733 1.733 0 0 1-.453.422c.093.063.175.137.25.219.082.086.156.18.218.281l3.172 4H6.75a.732.732 0 0 1-.313-.063.511.511 0 0 1-.218-.218L3.547-3.594a.53.53 0 0 0-.235-.219.936.936 0 0 0-.343-.046h-.406V0H1.125v-11.766Zm0 0"
        style="stroke:none" transform="translate(74.616 15.761)" />
    </g>
    <g style="fill:#0a0a0a;fill-opacity:1">
      <path
        d="M5.844-6.75a.333.333 0 0 1-.297.172.591.591 0 0 1-.281-.078 4.179 4.179 0 0 0-.89-.406 2.413 2.413 0 0 0-.72-.094c-.242 0-.46.031-.656.093a1.665 1.665 0 0 0-.484.25 1.063 1.063 0 0 0-.313.375.936.936 0 0 0-.11.454c0 .21.055.386.173.53.125.138.285.259.484.36.195.094.422.184.672.266.25.074.504.156.765.25.27.086.532.18.782.281.25.106.472.242.672.406.195.157.351.352.468.579.125.23.188.511.188.843 0 .367-.07.711-.203 1.031a2.47 2.47 0 0 1-.594.829c-.262.23-.586.414-.969.546a4.105 4.105 0 0 1-1.297.188 4.24 4.24 0 0 1-1.53-.266A3.88 3.88 0 0 1 .53-.859l.344-.532a.396.396 0 0 1 .375-.218.55.55 0 0 1 .297.109c.101.074.226.156.375.25.156.086.344.168.562.25.22.074.493.11.829.11.269 0 .507-.036.718-.11.207-.07.38-.172.516-.297.144-.125.25-.266.312-.422.063-.156.094-.328.094-.515a.815.815 0 0 0-.187-.547 1.526 1.526 0 0 0-.47-.375 3.392 3.392 0 0 0-.671-.266c-.25-.082-.512-.164-.781-.25a8.52 8.52 0 0 1-.766-.281 2.796 2.796 0 0 1-.672-.422 1.894 1.894 0 0 1-.484-.61C.805-5.222.75-5.52.75-5.874A2.137 2.137 0 0 1 1.5-7.5c.25-.219.55-.39.906-.516a3.434 3.434 0 0 1 1.219-.203c.531 0 1.004.086 1.422.25a3.53 3.53 0 0 1 1.11.688Zm0 0"
        style="stroke:none" transform="translate(82.728 15.761)" />
    </g>
  </g>
  <g style="fill:#0a0a0a;fill-opacity:1">
    <path d="M5.016-16.969v6.672h7.843v2.094H5.016V0H2.437v-19.063h11.75v2.094Zm0 0"
      style="stroke:none" transform="translate(89.591 57.92)" />
  </g>
  <g style="fill:#0a0a0a;fill-opacity:1">
    <path
      d="M7.563-13.688c.976 0 1.863.168 2.656.5.789.325 1.46.79 2.015 1.391.563.606.989 1.336 1.282 2.188.3.855.453 1.808.453 2.859 0 1.063-.153 2.023-.453 2.875-.293.855-.72 1.586-1.282 2.188a5.503 5.503 0 0 1-2.015 1.39c-.793.32-1.68.484-2.656.484-1 0-1.899-.164-2.688-.484a5.595 5.595 0 0 1-2.031-1.39c-.555-.602-.98-1.333-1.281-2.188-.293-.852-.438-1.813-.438-2.875 0-1.05.145-2.004.438-2.86.3-.85.726-1.581 1.28-2.187a5.693 5.693 0 0 1 2.032-1.39c.79-.333 1.688-.5 2.688-.5Zm0 12.032c1.32 0 2.312-.446 2.968-1.344.656-.895.985-2.14.985-3.734 0-1.602-.329-2.852-.985-3.75-.656-.895-1.648-1.344-2.969-1.344-.68 0-1.265.117-1.765.344-.5.23-.918.562-1.25 1-.336.437-.586.976-.75 1.609-.168.637-.25 1.352-.25 2.14 0 1.594.328 2.84.984 3.735.664.898 1.676 1.344 3.032 1.344Zm0 0"
      style="stroke:none" transform="translate(103.484 57.92)" />
  </g>
  <g style="fill:#0a0a0a;fill-opacity:1">
    <path
      d="M4.125-10.781c.426-.914.945-1.633 1.563-2.156.625-.52 1.382-.782 2.28-.782.282 0 .552.031.813.094.27.063.504.164.703.297l-.171 1.765c-.055.22-.184.329-.391.329-.125 0-.309-.024-.547-.079a3.956 3.956 0 0 0-.813-.078c-.43 0-.808.063-1.14.188a2.537 2.537 0 0 0-.89.562 3.75 3.75 0 0 0-.704.907c-.21.355-.402.761-.578 1.218V0H1.875v-13.484h1.36c.257 0 .437.054.53.156.094.094.16.262.204.5Zm0 0"
      style="stroke:none" transform="translate(118.575 57.92)" />
  </g>
  <g style="fill:#0a0a0a;fill-opacity:1">
    <path
      d="M1.875 0v-13.484h1.422c.344 0 .55.168.625.5l.172 1.375a7.03 7.03 0 0 1 1.672-1.485c.625-.394 1.343-.594 2.156-.594.906 0 1.64.258 2.203.766.563.5.969 1.18 1.219 2.031.195-.476.445-.894.75-1.25a4.616 4.616 0 0 1 1.031-.875c.383-.238.79-.41 1.219-.515a5.793 5.793 0 0 1 1.312-.156c.707 0 1.336.117 1.89.343a3.614 3.614 0 0 1 1.423.985c.383.437.676.976.875 1.609.207.625.312 1.352.312 2.172V0h-2.375v-8.578c0-1.063-.234-1.863-.703-2.406-.46-.54-1.121-.813-1.984-.813-.399 0-.774.07-1.125.203-.344.137-.653.34-.922.61a2.818 2.818 0 0 0-.625 1c-.156.406-.235.875-.235 1.406V0H9.813v-8.578c0-1.082-.22-1.89-.657-2.422-.437-.531-1.074-.797-1.906-.797-.586 0-1.125.156-1.625.469-.492.312-.95.742-1.375 1.281V0Zm0 0"
      style="stroke:none" transform="translate(128.263 57.92)" />
  </g>
  <g style="fill:#0a0a0a;fill-opacity:1">
    <path
      d="M9.188-6.063c-1.094.032-2.028.122-2.797.266-.774.137-1.399.313-1.875.531-.48.22-.829.48-1.047.782a1.69 1.69 0 0 0-.328 1.015c0 .356.054.664.171.922.114.25.27.461.47.625.195.168.429.29.702.36.27.074.563.109.875.109.414 0 .797-.04 1.141-.125.352-.082.68-.203.984-.36a6.45 6.45 0 0 0 .875-.578 7.89 7.89 0 0 0 .829-.75ZM1.53-11.578c.739-.719 1.54-1.254 2.407-1.61.863-.351 1.816-.53 2.859-.53.75 0 1.414.124 2 .374a4.09 4.09 0 0 1 1.484 1.047c.406.438.707.977.906 1.61.208.624.313 1.312.313 2.062V0h-1.063c-.23 0-.406-.035-.53-.11-.126-.07-.22-.222-.282-.453l-.266-1.28c-.355.335-.703.632-1.046.89-.336.25-.688.465-1.063.64a6.197 6.197 0 0 1-1.203.391c-.418.094-.883.14-1.39.14A4.998 4.998 0 0 1 3.171 0a3.392 3.392 0 0 1-1.203-.656 3.388 3.388 0 0 1-.813-1.125C.957-2.227.86-2.754.86-3.36c0-.54.145-1.055.438-1.547.3-.489.781-.922 1.437-1.297.657-.383 1.508-.695 2.563-.938 1.05-.25 2.348-.394 3.89-.437v-1.047c0-1.04-.23-1.828-.687-2.36-.45-.538-1.11-.812-1.984-.812-.586 0-1.075.074-1.47.219a5.284 5.284 0 0 0-1.03.5c-.282.18-.528.34-.735.484a1.07 1.07 0 0 1-.625.219.653.653 0 0 1-.406-.125 1.134 1.134 0 0 1-.297-.313Zm0 0"
      style="stroke:none" transform="translate(150.154 57.92)" />
  </g>
  <g style="fill:#0a0a0a;fill-opacity:1">
    <path
      d="M6.016.219c-1.063 0-1.883-.297-2.454-.89-.574-.595-.859-1.454-.859-2.579v-8.25H1.078a.504.504 0 0 1-.36-.125c-.093-.082-.14-.21-.14-.39v-.938l2.203-.281.547-4.172a.539.539 0 0 1 .172-.328.55.55 0 0 1 .375-.125h1.188v4.64h3.906v1.719H5.063v8.094c0 .574.132.996.406 1.265.281.274.64.407 1.078.407.25 0 .46-.032.64-.094.188-.063.344-.133.47-.219.132-.082.25-.156.343-.219.094-.07.176-.109.25-.109.125 0 .234.078.328.234l.688 1.125a4.375 4.375 0 0 1-1.47.907 4.963 4.963 0 0 1-1.78.328Zm0 0"
      style="stroke:none" transform="translate(163.21 57.92)" />
  </g>
  <g style="fill:#0a0a0a;fill-opacity:1">
    <path
      d="M9.719-11.25a.518.518 0 0 1-.485.281.93.93 0 0 1-.453-.14 10.271 10.271 0 0 0-.625-.313 5.31 5.31 0 0 0-.875-.344 4.109 4.109 0 0 0-1.187-.156c-.399 0-.758.055-1.078.156a2.706 2.706 0 0 0-.829.422c-.218.18-.39.387-.515.625-.117.23-.172.48-.172.75 0 .344.098.637.297.875.195.23.457.43.781.594.332.168.707.32 1.125.453.414.125.844.262 1.281.406.446.149.88.309 1.297.485.414.18.785.402 1.11.672.332.261.597.586.796.968.196.387.297.852.297 1.391 0 .625-.117 1.203-.343 1.734a3.665 3.665 0 0 1-.985 1.36c-.43.386-.96.695-1.594.922-.625.218-1.351.328-2.171.328-.938 0-1.793-.153-2.563-.453C2.066-.547 1.422-.941.891-1.422l.562-.906a.863.863 0 0 1 .25-.266.666.666 0 0 1 .375-.094c.156 0 .32.063.5.188.176.125.39.266.64.422.259.148.571.281.938.406.364.125.817.188 1.36.188.457 0 .859-.055 1.203-.172.343-.125.629-.29.86-.5.226-.207.398-.442.515-.703a2.2 2.2 0 0 0 .172-.86c0-.363-.106-.664-.313-.906-.2-.25-.465-.457-.797-.625a5.917 5.917 0 0 0-1.11-.453c-.417-.133-.85-.27-1.296-.406a17.256 17.256 0 0 1-1.297-.485 4.925 4.925 0 0 1-1.125-.687 3.163 3.163 0 0 1-.781-1.032c-.2-.406-.297-.894-.297-1.468 0-.508.102-1 .313-1.469.218-.477.53-.895.937-1.25.406-.363.906-.648 1.5-.86.594-.218 1.273-.328 2.047-.328.883 0 1.676.141 2.375.422.707.274 1.32.653 1.844 1.141Zm0 0"
      style="stroke:none" transform="translate(172.75 57.92)" />
  </g>
  <g clip-path="url(#f)">
    <g clip-path="url(#g)">
      <g clip-path="url(#h)">
        <g clip-path="url(#i)">
          <g clip-path="url(#j)" class="bbb-icon">
            <path d="M.398 0h75.368v75.363H.398Zm0 0"
              style="stroke:none;fill-rule:nonzero;fill:#036666;fill-opacity:1" />
          </g>
        </g>
      </g>
    </g>
  </g>
  <path
    d="M9.813 15.903 9 18.751l-.813-2.848a4.527 4.527 0 0 0-1.144-1.945 4.527 4.527 0 0 0-1.945-1.144L2.25 12l2.846-.813a4.452 4.452 0 0 0 1.045-.449c.33-.193.63-.425.9-.695a4.447 4.447 0 0 0 1.144-1.945L9 5.25l.813 2.846c.106.368.255.715.448 1.046a4.539 4.539 0 0 0 1.596 1.596c.33.194.679.343 1.046.447L15.75 12l-2.846.813a4.522 4.522 0 0 0-1.945 1.145 4.47 4.47 0 0 0-1.144 1.945Zm8.446-7.188L18 9.75l-.26-1.035a3.386 3.386 0 0 0-2.455-2.456L14.249 6l1.037-.26a3.32 3.32 0 0 0 1.567-.887 3.386 3.386 0 0 0 .887-1.568L18 2.251l.259 1.034a3.386 3.386 0 0 0 1.612 2.12c.265.15.547.262.845.335L21.75 6l-1.034.259a3.357 3.357 0 0 0-2.119 1.612 3.35 3.35 0 0 0-.338.844Zm-1.364 11.852L16.5 21.75l-.394-1.184a2.229 2.229 0 0 0-.545-.88 2.207 2.207 0 0 0-.879-.542L13.5 18.75l1.184-.394c.336-.113.63-.295.88-.545.25-.25.431-.543.544-.879l.394-1.184.394 1.184c.11.336.293.63.543.88.25.25.543.431.879.544l1.184.394-1.184.394a2.2 2.2 0 0 0-.88.543c-.25.25-.431.543-.542.879Zm0 0"
    style="fill:none;stroke-width:1.5;stroke-linecap:round;stroke-linejoin:round;stroke:#fff;stroke-opacity:1;stroke-miterlimit:4"
    transform="translate(9.897 10.764) scale(2.35958)" />
</svg>