<svg width="24px" height="24px" xmlns="http://www.w3.org/2000/svg" version="1.1" viewBox="-5.0 -10.0 110.0 135.0">
 <path d="m90.492 24.562c3.3164 3.3164 3.4414 8.6562 0.28516 12.125l-36.961 40.629c-0.35938 0.39453-0.86328 0.625-1.3984 0.63672-0.53516 0.011719-1.0508-0.19531-1.4258-0.57031l-30.207-30.207c-0.37891-0.37891-0.58203-0.89453-0.57031-1.4258 0.011718-0.53516 0.24219-1.0391 0.63672-1.3984l40.629-36.961c3.4688-3.1562 8.8086-3.0312 12.125 0.28516z" fill-rule="evenodd"/>
 <path d="m53.754 77.387-5.418 5.418c-1.6055 1.6055-4.1055 1.8906-6.0352 0.69141-0.003906 0-0.003906-0.003906-0.007812-0.003906-2.9141-1.832-5.793-2.6133-8.6602-2.1875-2.9453 0.4375-5.8398 2.1211-8.7383 5.0039-0.76172 0.75781-1.9961 0.75781-2.7578-0.003906l-10.27-10.27c-0.76172-0.76172-0.76172-1.9961-0.003907-2.7578 2.8867-2.8984 4.5664-5.793 5.0039-8.7383 0.42578-2.8672-0.35547-5.75-2.1875-8.6602 0-0.003906-0.003907-0.003906-0.003907-0.007812-1.1992-1.9258-0.91406-4.4258 0.69141-6.0312 2.1133-2.1172 5.418-5.418 5.418-5.418 0.76172-0.76172 2-0.76172 2.7617 0l30.207 30.207c0.76172 0.76172 0.76172 2 0 2.7617zm-4.1406-1.3789-27.445-27.445c-1.1523 1.1523-2.7969 2.7969-4.0352 4.0352-0.32031 0.32031-0.37891 0.82031-0.13672 1.2031 2.3867 3.793 3.2969 7.5703 2.7422 11.309-0.47266 3.1797-2.0234 6.3594-4.7695 9.4961l7.6016 7.6016c3.1406-2.7461 6.3203-4.2969 9.4961-4.7695 3.7383-0.55469 7.5156 0.35547 11.312 2.7461 0.38281 0.23828 0.88281 0.17969 1.2031-0.14062l4.0352-4.0352z" fill-rule="evenodd"/>
 <path d="m4.8672 84.551 9.1406-9.1406c0.76172-0.76172 2-0.76172 2.7617 0l5.9883 5.9883c0.76172 0.76172 0.76172 2 0 2.7617l-3.1523 3.1523c-0.36719 0.36719-0.86328 0.57031-1.3789 0.57031h-11.977c-0.78906 0-1.5-0.47656-1.8047-1.207-0.30078-0.73047-0.13672-1.5703 0.42188-2.1289z" fill-rule="evenodd"/>
 <path d="m6.2461 94.863c-1.0781 0-1.9531-0.875-1.9531-1.9531s0.875-1.9531 1.9531-1.9531h87.473c1.0781 0 1.9531 0.875 1.9531 1.9531s-0.875 1.9531-1.9531 1.9531z" fill-rule="evenodd"/>
</svg>

