<svg xmlns="http://www.w3.org/2000/svg" viewBox="5.989762306213379 4.5 87.01829624176025 89.99699401855469" width="24" height="24">
  <g fill-rule="evenodd">
    <path d="M49.954 56.886a4.45 4.45 0 0 1-3.168-1.307l-4.851-4.851c-.845-.845-1.308-1.97-1.308-3.168s.463-2.324 1.308-3.168l22.939-22.94a4.45 4.45 0 0 1 3.168-1.307 4.45 4.45 0 0 1 3.167 1.307l4.848 4.851a4.48 4.48 0 0 1 0 6.333L53.118 55.579a4.45 4.45 0 0 1-3.168 1.307zm18.091-34.629a2.35 2.35 0 0 0-1.674.69L43.434 45.885a2.36 2.36 0 0 0-.69 1.676c0 .637.246 1.23.69 1.674l4.851 4.851c.89.89 2.462.89 3.35 0l22.939-22.939a2.37 2.37 0 0 0 0-3.35l-4.848-4.852a2.34 2.34 0 0 0-1.677-.689z"/>
    <path d="M46.916 75.88a1.04 1.04 0 0 1-.745-.309l-24.23-24.23a1.05 1.05 0 0 1-.31-.783c.011-.292.14-.567.366-.76L69.97 8.285C72.794 5.846 76.31 4.5 79.874 4.5c3.523 0 6.824 1.364 9.299 3.84 5.094 5.093 5.115 13.348.053 19.202L47.714 75.515a1.08 1.08 0 0 1-.76.366zM24.233 50.654 46.86 73.28l40.771-47.117c4.332-5.006 4.356-12.027.053-16.333-2.106-2.106-4.806-3.22-7.808-3.22-3.06 0-6.086 1.16-8.526 3.273z"/>
    <path d="M46.916 75.88a1.04 1.04 0 0 1-.745-.309l-24.23-24.23a1.05 1.05 0 0 1-.31-.783c.011-.292.14-.567.366-.76l4.577-3.958a1.053 1.053 0 0 1 1.435.053l23.615 23.61c.39.39.411 1.02.053 1.434l-3.963 4.578a1.08 1.08 0 0 1-.758.366zM24.233 50.654 46.86 73.28l2.577-2.978-22.225-22.226z"/>
    <path d="M41.424 81.373c-.27 0-.541-.102-.745-.31l-24.23-24.23a1.053 1.053 0 0 1 0-1.49l5.491-5.492c.398-.397 1.098-.397 1.491 0l24.23 24.23a1.053 1.053 0 0 1 0 1.49l-5.492 5.492c-.206.204-.474.31-.745.31m-22.74-25.285 22.74 22.74 4-4.001-22.739-22.74z"/>
    <path d="M20.426 86.868a1.052 1.052 0 0 1-.714-1.828c7.646-7.067 21.242-5.822 21.818-5.769a1.055 1.055 0 0 1-.203 2.102c-.131-.014-13.233-1.202-20.184 5.217a1.06 1.06 0 0 1-.714.282zm-8.722-8.723a1.056 1.056 0 0 1-.777-1.772c6.419-6.947 5.227-20.05 5.217-20.18a1.054 1.054 0 0 1 2.099-.203c.056.576 1.296 14.171-5.766 21.818a1.05 1.05 0 0 1-.774.337z"/>
    <path d="M20.426 86.868c-.27 0-.542-.102-.746-.31l-8.723-8.722a1.055 1.055 0 0 1 1.492-1.49l8.722 8.722a1.055 1.055 0 0 1-.745 1.8"/>
    <path d="M10.772 94.496a1.05 1.05 0 0 1-.963-.63l-3.727-8.42a1.04 1.04 0 0 1 .148-1.093l5.667-6.92c.19-.23.468-.37.763-.388.295-.014.587.098.798.31l6.701 6.7c.411.41.411 1.08 0 1.49l-8.642 8.642c-.2.2-.468.31-.745.31m-2.501-9.31 2.841 6.423 6.806-6.81-5.133-5.133-4.518 5.52zm18.367-1.99c-.27 0-.538-.102-.745-.31L14.629 71.623a1.055 1.055 0 0 1 1.49-1.49l11.264 11.264a1.055 1.055 0 0 1-.745 1.8"/>
    <path d="M77.84 94.496H10.774a1.056 1.056 0 0 1 0-2.11h67.064a1.056 1.056 0 0 1 0 2.11"/>
  </g>
</svg>
